<?plantuml 1.2026.1?><svg xmlns="http://www.w3.org/2000/svg" xmlns:xlink="http://www.w3.org/1999/xlink" contentStyleType="text/css" data-diagram-type="SEQUENCE" height="1722px" preserveAspectRatio="none" style="width:1729px;height:1722px;background:#FFFFFF;" version="1.1" viewBox="0 0 1729 1722" width="1729px" zoomAndPan="magnify"><title>Main Flow - Video Upload to Analysis Results</title><defs/><g><text fill="#000000" font-family="'Segoe UI, Arial, Helvetica, sans-serif'" font-size="14" font-weight="bold" lengthAdjust="spacing" textLength="329.4443" x="696.0256" y="28.5352">Main Flow - Video Upload to Analysis Results</text><rect fill="none" height="122.7754" rx="2" ry="2" style="stroke:#000000;stroke-width:1.5;" width="347.6201" x="752.4041" y="376.084"/><rect fill="none" height="161.7305" rx="2" ry="2" style="stroke:#000000;stroke-width:1.5;" width="410.1846" x="752.4041" y="539.8145"/><rect fill="none" height="148.6855" rx="2" ry="2" style="stroke:#000000;stroke-width:1.5;" width="560.2998" x="752.4041" y="742.5"/><g class="participant-lifeline" data-entity-uid="part1" data-qualified-name="user" id="part1-lifeline"><g><title>User</title><rect fill="#000000" fill-opacity="0.00000" height="1518.6641" width="8" x="15.9292" y="115.4434"/><line style="stroke:#CCCCCC;stroke-width:0.5;stroke-dasharray:5,5;" x1="19" x2="19" y1="115.4434" y2="1634.1074"/></g></g><g class="participant-lifeline" data-entity-uid="part2" data-qualified-name="fe" id="part2-lifeline"><g><title>Frontend</title><rect fill="#000000" fill-opacity="0.00000" height="1518.6641" width="8" x="293.5093" y="115.4434"/><line style="stroke:#CCCCCC;stroke-width:0.5;stroke-dasharray:5,5;" x1="296.522" x2="296.522" y1="115.4434" y2="1634.1074"/></g></g><g class="participant-lifeline" data-entity-uid="part3" data-qualified-name="api" id="part3-lifeline"><g><title>Backend API</title><rect fill="#000000" fill-opacity="0.00000" height="1518.6641" width="8" x="540.9521" y="115.4434"/><line style="stroke:#CCCCCC;stroke-width:0.5;stroke-dasharray:5,5;" x1="544.6208" x2="544.6208" y1="115.4434" y2="1634.1074"/></g></g><g class="participant-lifeline" data-entity-uid="part4" data-qualified-name="orch" id="part4-lifeline"><g><title>Orchestrator</title><rect fill="#000000" fill-opacity="0.00000" height="1518.6641" width="8" x="799.0566" y="115.4434"/><line style="stroke:#CCCCCC;stroke-width:0.5;stroke-dasharray:5,5;" x1="802.4041" x2="802.4041" y1="115.4434" y2="1634.1074"/></g></g><g class="participant-lifeline" data-entity-uid="part5" data-qualified-name="ffmpeg" id="part5-lifeline"><g><title>FFmpeg</title><rect fill="#000000" fill-opacity="0.00000" height="1518.6641" width="8" x="1058.0366" y="115.4434"/><line style="stroke:#CCCCCC;stroke-width:0.5;stroke-dasharray:5,5;" x1="1061.0491" x2="1061.0491" y1="115.4434" y2="1634.1074"/></g></g><g class="participant-lifeline" data-entity-uid="part6" data-qualified-name="voxtral" id="part6-lifeline"><g><title>Voxtral</title><rect fill="#000000" fill-opacity="0.00000" height="1518.6641" width="8" x="1122.3064" y="115.4434"/><line style="stroke:#CCCCCC;stroke-width:0.5;stroke-dasharray:5,5;" x1="1126.0242" x2="1126.0242" y1="115.4434" y2="1634.1074"/></g></g><g class="participant-lifeline" data-entity-uid="part7" data-qualified-name="pixtral" id="part7-lifeline"><g><title>Pixtral</title><rect fill="#000000" fill-opacity="0.00000" height="1518.6641" width="8" x="1182.5264" y="115.4434"/><line style="stroke:#CCCCCC;stroke-width:0.5;stroke-dasharray:5,5;" x1="1185.5886" x2="1185.5886" y1="115.4434" y2="1634.1074"/></g></g><g class="participant-lifeline" data-entity-uid="part8" data-qualified-name="mistral" id="part8-lifeline"><g><title>Mistral Small</title><rect fill="#000000" fill-opacity="0.00000" height="1518.6641" width="8" x="1257.584" y="115.4434"/><line style="stroke:#CCCCCC;stroke-width:0.5;stroke-dasharray:5,5;" x1="1261.4641" x2="1261.4641" y1="115.4434" y2="1634.1074"/></g></g><g class="participant-lifeline" data-entity-uid="part9" data-qualified-name="graph" id="part9-lifeline"><g><title>Graph</title><rect fill="#000000" fill-opacity="0.00000" height="1518.6641" width="8" x="1334.2368" y="115.4434"/><line style="stroke:#CCCCCC;stroke-width:0.5;stroke-dasharray:5,5;" x1="1337.7039" x2="1337.7039" y1="115.4434" y2="1634.1074"/></g></g><g class="participant-lifeline" data-entity-uid="part10" data-qualified-name="db" id="part10-lifeline"><g><title>Job Storage</title><rect fill="#000000" fill-opacity="0.00000" height="1518.6641" width="8" x="1680.0254" y="115.4434"/><line style="stroke:#CCCCCC;stroke-width:0.5;stroke-dasharray:5,5;" x1="1683.5552" x2="1683.5552" y1="115.4434" y2="1634.1074"/></g></g><g class="participant participant-head" data-entity-uid="part1" data-qualified-name="user" id="part1-head"><text fill="#000000" font-family="'Segoe UI, Arial, Helvetica, sans-serif'" font-size="11" lengthAdjust="spacing" textLength="23.8584" x="5" y="113.123">User</text><ellipse cx="19.9292" cy="50.9883" fill="#E2E2F0" rx="8" ry="8" style="stroke:#181818;stroke-width:0.5;"/><path d="M19.9292,58.9883 L19.9292,85.9883 M6.9292,66.9883 L32.9292,66.9883 M19.9292,85.9883 L6.9292,100.9883 M19.9292,85.9883 L32.9292,100.9883" fill="none" style="stroke:#181818;stroke-width:0.5;"/></g><g class="participant participant-tail" data-entity-uid="part1" data-qualified-name="user" id="part1-tail"><text fill="#000000" font-family="'Segoe UI, Arial, Helvetica, sans-serif'" font-size="11" lengthAdjust="spacing" textLength="23.8584" x="5" y="1643.7422">User</text><ellipse cx="19.9292" cy="1654.5625" fill="#E2E2F0" rx="8" ry="8" style="stroke:#181818;stroke-width:0.5;"/><path d="M19.9292,1662.5625 L19.9292,1689.5625 M6.9292,1670.5625 L32.9292,1670.5625 M19.9292,1689.5625 L6.9292,1704.5625 M19.9292,1689.5625 L32.9292,1704.5625" fill="none" style="stroke:#181818;stroke-width:0.5;"/></g><g class="participant participant-head" data-entity-uid="part2" data-qualified-name="fe" id="part2-head"><rect fill="#FFFFFF" height="39.9102" rx="2" ry="2" style="stroke:#B0B0B0;stroke-width:0.5;" width="61.9746" x="266.522" y="74.5332"/><text fill="#000000" font-family="'Segoe UI, Arial, Helvetica, sans-serif'" font-size="11" lengthAdjust="spacing" textLength="47.9746" x="273.522" y="92.168">Frontend</text><text fill="#000000" font-family="'Segoe UI, Arial, Helvetica, sans-serif'" font-size="11" lengthAdjust="spacing" textLength="37.5493" x="278.7346" y="105.123">Next.js</text></g><g class="participant participant-tail" data-entity-uid="part2" data-qualified-name="fe" id="part2-tail"><rect fill="#FFFFFF" height="39.9102" rx="2" ry="2" style="stroke:#B0B0B0;stroke-width:0.5;" width="61.9746" x="266.522" y="1633.1074"/><text fill="#000000" font-family="'Segoe UI, Arial, Helvetica, sans-serif'" font-size="11" lengthAdjust="spacing" textLength="47.9746" x="273.522" y="1650.7422">Frontend</text><text fill="#000000" font-family="'Segoe UI, Arial, Helvetica, sans-serif'" font-size="11" lengthAdjust="spacing" textLength="37.5493" x="278.7346" y="1663.6973">Next.js</text></g><g class="participant participant-head" data-entity-uid="part3" data-qualified-name="api" id="part3-head"><rect fill="#FFFFFF" height="39.9102" rx="2" ry="2" style="stroke:#B0B0B0;stroke-width:0.5;" width="78.6626" x="505.6208" y="74.5332"/><text fill="#000000" font-family="'Segoe UI, Arial, Helvetica, sans-serif'" font-size="11" lengthAdjust="spacing" textLength="64.6626" x="512.6208" y="92.168">Backend API</text><text fill="#000000" font-family="'Segoe UI, Arial, Helvetica, sans-serif'" font-size="11" lengthAdjust="spacing" textLength="38.5322" x="525.686" y="105.123">FastAPI</text></g><g class="participant participant-tail" data-entity-uid="part3" data-qualified-name="api" id="part3-tail"><rect fill="#FFFFFF" height="39.9102" rx="2" ry="2" style="stroke:#B0B0B0;stroke-width:0.5;" width="78.6626" x="505.6208" y="1633.1074"/><text fill="#000000" font-family="'Segoe UI, Arial, Helvetica, sans-serif'" font-size="11" lengthAdjust="spacing" textLength="64.6626" x="512.6208" y="1650.7422">Backend API</text><text fill="#000000" font-family="'Segoe UI, Arial, Helvetica, sans-serif'" font-size="11" lengthAdjust="spacing" textLength="38.5322" x="525.686" y="1663.6973">FastAPI</text></g><g class="participant participant-head" data-entity-uid="part4" data-qualified-name="orch" id="part4-head"><rect fill="#FFFFFF" height="26.9551" rx="2" ry="2" style="stroke:#B0B0B0;stroke-width:0.5;" width="81.3052" x="762.4041" y="87.4883"/><text fill="#000000" font-family="'Segoe UI, Arial, Helvetica, sans-serif'" font-size="11" lengthAdjust="spacing" textLength="67.3052" x="769.4041" y="105.123">Orchestrator</text></g><g class="participant participant-tail" data-entity-uid="part4" data-qualified-name="orch" id="part4-tail"><rect fill="#FFFFFF" height="26.9551" rx="2" ry="2" style="stroke:#B0B0B0;stroke-width:0.5;" width="81.3052" x="762.4041" y="1633.1074"/><text fill="#000000" font-family="'Segoe UI, Arial, Helvetica, sans-serif'" font-size="11" lengthAdjust="spacing" textLength="67.3052" x="769.4041" y="1650.7422">Orchestrator</text></g><g class="participant participant-head" data-entity-uid="part5" data-qualified-name="ffmpeg" id="part5-head"><rect fill="#FFFFFF" height="26.9551" rx="2" ry="2" style="stroke:#B0B0B0;stroke-width:0.5;" width="55.9751" x="1034.0491" y="87.4883"/><text fill="#000000" font-family="'Segoe UI, Arial, Helvetica, sans-serif'" font-size="11" lengthAdjust="spacing" textLength="41.9751" x="1041.0491" y="105.123">FFmpeg</text></g><g class="participant participant-tail" data-entity-uid="part5" data-qualified-name="ffmpeg" id="part5-tail"><rect fill="#FFFFFF" height="26.9551" rx="2" ry="2" style="stroke:#B0B0B0;stroke-width:0.5;" width="55.9751" x="1034.0491" y="1633.1074"/><text fill="#000000" font-family="'Segoe UI, Arial, Helvetica, sans-serif'" font-size="11" lengthAdjust="spacing" textLength="41.9751" x="1041.0491" y="1650.7422">FFmpeg</text></g><g class="participant participant-head" data-entity-uid="part6" data-qualified-name="voxtral" id="part6-head"><rect fill="#FFFFFF" height="39.9102" rx="2" ry="2" style="stroke:#B0B0B0;stroke-width:0.5;" width="52.5645" x="1100.0242" y="74.5332"/><text fill="#000000" font-family="'Segoe UI, Arial, Helvetica, sans-serif'" font-size="11" lengthAdjust="spacing" textLength="38.5645" x="1107.0242" y="92.168">Voxtral</text><text fill="#000000" font-family="'Segoe UI, Arial, Helvetica, sans-serif'" font-size="11" lengthAdjust="spacing" textLength="20.4692" x="1116.0718" y="105.123">ASR</text></g><g class="participant participant-tail" data-entity-uid="part6" data-qualified-name="voxtral" id="part6-tail"><rect fill="#FFFFFF" height="39.9102" rx="2" ry="2" style="stroke:#B0B0B0;stroke-width:0.5;" width="52.5645" x="1100.0242" y="1633.1074"/><text fill="#000000" font-family="'Segoe UI, Arial, Helvetica, sans-serif'" font-size="11" lengthAdjust="spacing" textLength="38.5645" x="1107.0242" y="1650.7422">Voxtral</text><text fill="#000000" font-family="'Segoe UI, Arial, Helvetica, sans-serif'" font-size="11" lengthAdjust="spacing" textLength="20.4692" x="1116.0718" y="1663.6973">ASR</text></g><g class="participant participant-head" data-entity-uid="part7" data-qualified-name="pixtral" id="part7-head"><rect fill="#FFFFFF" height="39.9102" rx="2" ry="2" style="stroke:#B0B0B0;stroke-width:0.5;" width="47.8755" x="1162.5886" y="74.5332"/><text fill="#000000" font-family="'Segoe UI, Arial, Helvetica, sans-serif'" font-size="11" lengthAdjust="spacing" textLength="33.8755" x="1169.5886" y="92.168">Pixtral</text><text fill="#000000" font-family="'Segoe UI, Arial, Helvetica, sans-serif'" font-size="11" lengthAdjust="spacing" textLength="32.7422" x="1170.1553" y="105.123">Vision</text></g><g class="participant participant-tail" data-entity-uid="part7" data-qualified-name="pixtral" id="part7-tail"><rect fill="#FFFFFF" height="39.9102" rx="2" ry="2" style="stroke:#B0B0B0;stroke-width:0.5;" width="47.8755" x="1162.5886" y="1633.1074"/><text fill="#000000" font-family="'Segoe UI, Arial, Helvetica, sans-serif'" font-size="11" lengthAdjust="spacing" textLength="33.8755" x="1169.5886" y="1650.7422">Pixtral</text><text fill="#000000" font-family="'Segoe UI, Arial, Helvetica, sans-serif'" font-size="11" lengthAdjust="spacing" textLength="32.7422" x="1170.1553" y="1663.6973">Vision</text></g><g class="participant participant-head" data-entity-uid="part8" data-qualified-name="mistral" id="part8-head"><rect fill="#FFFFFF" height="39.9102" rx="2" ry="2" style="stroke:#B0B0B0;stroke-width:0.5;" width="82.2397" x="1220.4641" y="74.5332"/><text fill="#000000" font-family="'Segoe UI, Arial, Helvetica, sans-serif'" font-size="11" lengthAdjust="spacing" textLength="68.2397" x="1227.4641" y="92.168">Mistral Small</text><text fill="#000000" font-family="'Segoe UI, Arial, Helvetica, sans-serif'" font-size="11" lengthAdjust="spacing" textLength="21.2051" x="1250.9814" y="105.123">LLM</text></g><g class="participant participant-tail" data-entity-uid="part8" data-qualified-name="mistral" id="part8-tail"><rect fill="#FFFFFF" height="39.9102" rx="2" ry="2" style="stroke:#B0B0B0;stroke-width:0.5;" width="82.2397" x="1220.4641" y="1633.1074"/><text fill="#000000" font-family="'Segoe UI, Arial, Helvetica, sans-serif'" font-size="11" lengthAdjust="spacing" textLength="68.2397" x="1227.4641" y="1650.7422">Mistral Small</text><text fill="#000000" font-family="'Segoe UI, Arial, Helvetica, sans-serif'" font-size="11" lengthAdjust="spacing" textLength="21.2051" x="1250.9814" y="1663.6973">LLM</text></g><g class="participant participant-head" data-entity-uid="part9" data-qualified-name="graph" id="part9-head"><rect fill="#FFFFFF" height="39.9102" rx="2" ry="2" style="stroke:#B0B0B0;stroke-width:0.5;" width="51.0659" x="1312.7039" y="74.5332"/><text fill="#000000" font-family="'Segoe UI, Arial, Helvetica, sans-serif'" font-size="11" lengthAdjust="spacing" textLength="32.2749" x="1322.0994" y="92.168">Graph</text><text fill="#000000" font-family="'Segoe UI, Arial, Helvetica, sans-serif'" font-size="11" lengthAdjust="spacing" textLength="37.0659" x="1319.7039" y="105.123">Builder</text></g><g class="participant participant-tail" data-entity-uid="part9" data-qualified-name="graph" id="part9-tail"><rect fill="#FFFFFF" height="39.9102" rx="2" ry="2" style="stroke:#B0B0B0;stroke-width:0.5;" width="51.0659" x="1312.7039" y="1633.1074"/><text fill="#000000" font-family="'Segoe UI, Arial, Helvetica, sans-serif'" font-size="11" lengthAdjust="spacing" textLength="32.2749" x="1322.0994" y="1650.7422">Graph</text><text fill="#000000" font-family="'Segoe UI, Arial, Helvetica, sans-serif'" font-size="11" lengthAdjust="spacing" textLength="37.0659" x="1319.7039" y="1663.6973">Builder</text></g><g class="participant participant-head" data-entity-uid="part10" data-qualified-name="db" id="part10-head"><text fill="#000000" font-family="'Segoe UI, Arial, Helvetica, sans-serif'" font-size="11" lengthAdjust="spacing" textLength="60.9404" x="1650.5552" y="100.168">Job Storage</text><text fill="#000000" font-family="'Segoe UI, Arial, Helvetica, sans-serif'" font-size="11" lengthAdjust="spacing" textLength="26.0176" x="1668.0166" y="113.123">JSON</text><path d="M1666.0254,53.5332 C1666.0254,43.5332 1684.0254,43.5332 1684.0254,43.5332 C1684.0254,43.5332 1702.0254,43.5332 1702.0254,53.5332 L1702.0254,79.5332 C1702.0254,89.5332 1684.0254,89.5332 1684.0254,89.5332 C1684.0254,89.5332 1666.0254,89.5332 1666.0254,79.5332 L1666.0254,53.5332" fill="#E2E2F0" style="stroke:#181818;stroke-width:0.5;"/><path d="M1666.0254,53.5332 C1666.0254,63.5332 1684.0254,63.5332 1684.0254,63.5332 C1684.0254,63.5332 1702.0254,63.5332 1702.0254,53.5332" fill="none" style="stroke:#181818;stroke-width:0.5;"/></g><g class="participant participant-tail" data-entity-uid="part10" data-qualified-name="db" id="part10-tail"><text fill="#000000" font-family="'Segoe UI, Arial, Helvetica, sans-serif'" font-size="11" lengthAdjust="spacing" textLength="60.9404" x="1650.5552" y="1643.7422">Job Storage</text><text fill="#000000" font-family="'Segoe UI, Arial, Helvetica, sans-serif'" font-size="11" lengthAdjust="spacing" textLength="26.0176" x="1668.0166" y="1656.6973">JSON</text><path d="M1666.0254,1669.0176 C1666.0254,1659.0176 1684.0254,1659.0176 1684.0254,1659.0176 C1684.0254,1659.0176 1702.0254,1659.0176 1702.0254,1669.0176 L1702.0254,1695.0176 C1702.0254,1705.0176 1684.0254,1705.0176 1684.0254,1705.0176 C1684.0254,1705.0176 1666.0254,1705.0176 1666.0254,1695.0176 L1666.0254,1669.0176" fill="#E2E2F0" style="stroke:#181818;stroke-width:0.5;"/><path d="M1666.0254,1669.0176 C1666.0254,1679.0176 1684.0254,1679.0176 1684.0254,1679.0176 C1684.0254,1679.0176 1702.0254,1679.0176 1702.0254,1669.0176" fill="none" style="stroke:#181818;stroke-width:0.5;"/></g><rect fill="#EEEEEE" height="3" rx="2" ry="2" style="stroke:#EEEEEE;stroke-width:1;" width="1722.4956" x="0" y="144.9209"/><line style="stroke:#000000;stroke-width:1;" x1="0" x2="1722.4956" y1="144.9209" y2="144.9209"/><line style="stroke:#000000;stroke-width:1;" x1="0" x2="1722.4956" y1="147.9209" y2="147.9209"/><rect fill="#EEEEEE" height="20.9551" rx="2" ry="2" style="stroke:#000000;stroke-width:2;" width="57.3716" x="832.562" y="135.4434"/><text fill="#000000" font-family="'Segoe UI, Arial, Helvetica, sans-serif'" font-size="11" font-weight="bold" lengthAdjust="spacing" textLength="39.7461" x="838.562" y="150.0781">Upload</text><g class="message" data-entity-1="part1" data-entity-2="part2" id="msg1"><polygon fill="#666666" points="285.5093,181.3535,295.5093,185.3535,285.5093,189.3535,289.5093,185.3535" style="stroke:#666666;stroke-width:1;"/><line style="stroke:#666666;stroke-width:1;" x1="19.9292" x2="291.5093" y1="185.3535" y2="185.3535"/><text fill="#555555" font-family="'Segoe UI, Arial, Helvetica, sans-serif'" font-size="11" lengthAdjust="spacing" textLength="97.5713" x="26.9292" y="181.0332">Drag &amp; drop video</text></g><g class="message" data-entity-1="part2" data-entity-2="part3" id="msg2"><polygon fill="#666666" points="532.9521,208.3086,542.9521,212.3086,532.9521,216.3086,536.9521,212.3086" style="stroke:#666666;stroke-width:1;"/><line style="stroke:#666666;stroke-width:1;" x1="297.5093" x2="538.9521" y1="212.3086" y2="212.3086"/><text fill="#555555" font-family="'Segoe UI, Arial, Helvetica, sans-serif'" font-size="11" lengthAdjust="spacing" textLength="155.2031" x="304.5093" y="207.9883">POST /api/upload (multipart)</text></g><g class="message" data-entity-1="part3" data-entity-2="part10" id="msg3"><polygon fill="#666666" points="1672.0254,235.2637,1682.0254,239.2637,1672.0254,243.2637,1676.0254,239.2637" style="stroke:#666666;stroke-width:1;"/><line style="stroke:#666666;stroke-width:1;" x1="544.9521" x2="1678.0254" y1="239.2637" y2="239.2637"/><text fill="#555555" font-family="'Segoe UI, Arial, Helvetica, sans-serif'" font-size="11" lengthAdjust="spacing" textLength="158.5547" x="551.9521" y="234.9434">Create job (status: uploading)</text></g><g class="message" data-entity-1="part3" data-entity-2="part2" id="msg4"><polygon fill="#666666" points="308.5093,262.2188,298.5093,266.2188,308.5093,270.2188,304.5093,266.2188" style="stroke:#666666;stroke-width:1;"/><line style="stroke:#666666;stroke-width:1;stroke-dasharray:2,2;" x1="302.5093" x2="543.9521" y1="266.2188" y2="266.2188"/><text fill="#555555" font-family="'Segoe UI, Arial, Helvetica, sans-serif'" font-size="11" lengthAdjust="spacing" textLength="110.4082" x="314.5093" y="261.8984">{ job_id, stream_url }</text></g><g class="message" data-entity-1="part2" data-entity-2="part3" id="msg5"><polygon fill="#666666" points="532.9521,289.1738,542.9521,293.1738,532.9521,297.1738,536.9521,293.1738" style="stroke:#666666;stroke-width:1;"/><line style="stroke:#666666;stroke-width:1;" x1="297.5093" x2="538.9521" y1="293.1738" y2="293.1738"/><text fill="#555555" font-family="'Segoe UI, Arial, Helvetica, sans-serif'" font-size="11" lengthAdjust="spacing" textLength="223.4429" x="304.5093" y="288.8535">GET /api/jobs/{id}/stream (SSE subscribe)</text></g><rect fill="#EEEEEE" height="3" rx="2" ry="2" style="stroke:#EEEEEE;stroke-width:1;" width="1722.4956" x="0" y="320.6514"/><line style="stroke:#000000;stroke-width:1;" x1="0" x2="1722.4956" y1="320.6514" y2="320.6514"/><line style="stroke:#000000;stroke-width:1;" x1="0" x2="1722.4956" y1="323.6514" y2="323.6514"/><rect fill="#EEEEEE" height="20.9551" rx="2" ry="2" style="stroke:#000000;stroke-width:2;" width="127.7007" x="797.3975" y="311.1738"/><text fill="#000000" font-family="'Segoe UI, Arial, Helvetica, sans-serif'" font-size="11" font-weight="bold" lengthAdjust="spacing" textLength="110.0752" x="803.3975" y="325.8086">Processing Pipeline</text><g class="message" data-entity-1="part3" data-entity-2="part4" id="msg6"><polygon fill="#666666" points="791.0566,357.084,801.0566,361.084,791.0566,365.084,795.0566,361.084" style="stroke:#666666;stroke-width:1;"/><line style="stroke:#666666;stroke-width:1;" x1="544.9521" x2="797.0566" y1="361.084" y2="361.084"/><text fill="#555555" font-family="'Segoe UI, Arial, Helvetica, sans-serif'" font-size="11" lengthAdjust="spacing" textLength="104.0488" x="551.9521" y="356.7637">Start pipeline async</text></g><path d="M754.4041,376.084 L990.511,376.084 L990.511,381.0391 L980.511,391.0391 L752.4041,391.0391 L752.4041,378.084 A2,2 0 0 1 754.4041,376.084" fill="#EEEEEE" style="stroke:#000000;stroke-width:1.5;"/><rect fill="none" height="122.7754" rx="2" ry="2" style="stroke:#000000;stroke-width:1.5;" width="347.6201" x="752.4041" y="376.084"/><text fill="#000000" font-family="'Segoe UI, Arial, Helvetica, sans-serif'" font-size="11" font-weight="bold" lengthAdjust="spacing" textLength="193.1069" x="767.4041" y="387.7188">Parallel: Audio + Frame Extraction</text><g class="message" data-entity-1="part4" data-entity-2="part5" id="msg7"><polygon fill="#666666" points="1050.0366,405.9941,1060.0366,409.9941,1050.0366,413.9941,1054.0366,409.9941" style="stroke:#666666;stroke-width:1;"/><line style="stroke:#666666;stroke-width:1;" x1="803.0566" x2="1056.0366" y1="409.9941" y2="409.9941"/><text fill="#555555" font-family="'Segoe UI, Arial, Helvetica, sans-serif'" font-size="11" lengthAdjust="spacing" textLength="143.4243" x="810.0566" y="405.6738">Extract audio (16kHz WAV)</text></g><g class="message" data-entity-1="part4" data-entity-2="part5" id="msg8"><polygon fill="#666666" points="1050.0366,432.9492,1060.0366,436.9492,1050.0366,440.9492,1054.0366,436.9492" style="stroke:#666666;stroke-width:1;"/><line style="stroke:#666666;stroke-width:1;" x1="803.0566" x2="1056.0366" y1="436.9492" y2="436.9492"/><text fill="#555555" font-family="'Segoe UI, Arial, Helvetica, sans-serif'" font-size="11" lengthAdjust="spacing" textLength="234.98" x="810.0566" y="432.6289">Extract frames (scene detect + 30s fallback)</text></g><g class="message" data-entity-1="part5" data-entity-2="part4" id="msg9"><polygon fill="#666666" points="814.0566,459.9043,804.0566,463.9043,814.0566,467.9043,810.0566,463.9043" style="stroke:#666666;stroke-width:1;"/><line style="stroke:#666666;stroke-width:1;stroke-dasharray:2,2;" x1="808.0566" x2="1061.0366" y1="463.9043" y2="463.9043"/><text fill="#555555" font-family="'Segoe UI, Arial, Helvetica, sans-serif'" font-size="11" lengthAdjust="spacing" textLength="53.4854" x="820.0566" y="459.584">audio.wav</text></g><g class="message" data-entity-1="part5" data-entity-2="part4" id="msg10"><polygon fill="#666666" points="814.0566,486.8594,804.0566,490.8594,814.0566,494.8594,810.0566,490.8594" style="stroke:#666666;stroke-width:1;"/><line style="stroke:#666666;stroke-width:1;stroke-dasharray:2,2;" x1="808.0566" x2="1061.0366" y1="490.8594" y2="490.8594"/><text fill="#555555" font-family="'Segoe UI, Arial, Helvetica, sans-serif'" font-size="11" lengthAdjust="spacing" textLength="68.3042" x="820.0566" y="486.5391">frames/*.jpg</text></g><g class="message" data-entity-1="part4" data-entity-2="part3" id="msg11"><polygon fill="#666666" points="555.9521,520.8145,545.9521,524.8145,555.9521,528.8145,551.9521,524.8145" style="stroke:#666666;stroke-width:1;"/><line style="stroke:#666666;stroke-width:1;" x1="549.9521" x2="802.0566" y1="524.8145" y2="524.8145"/><text fill="#555555" font-family="'Segoe UI, Arial, Helvetica, sans-serif'" font-size="11" lengthAdjust="spacing" textLength="219.9409" x="561.9521" y="520.4941">SSE: { step: "extraction", progress: 100% }</text></g><path d="M754.4041,539.8145 L1013.6013,539.8145 L1013.6013,544.7695 L1003.6013,554.7695 L752.4041,554.7695 L752.4041,541.8145 A2,2 0 0 1 754.4041,539.8145" fill="#EEEEEE" style="stroke:#000000;stroke-width:1.5;"/><rect fill="none" height="161.7305" rx="2" ry="2" style="stroke:#000000;stroke-width:1.5;" width="410.1846" x="752.4041" y="539.8145"/><text fill="#000000" font-family="'Segoe UI, Arial, Helvetica, sans-serif'" font-size="11" font-weight="bold" lengthAdjust="spacing" textLength="216.1973" x="767.4041" y="551.4492">Parallel: Transcription + Frame Dedup</text><g class="message" data-entity-1="part4" data-entity-2="part6" id="msg12"><polygon fill="#666666" points="1114.3064,582.6797,1124.3064,586.6797,1114.3064,590.6797,1118.3064,586.6797" style="stroke:#666666;stroke-width:1;"/><line style="stroke:#666666;stroke-width:1;" x1="803.0566" x2="1120.3064" y1="586.6797" y2="586.6797"/><text fill="#555555" font-family="'Segoe UI, Arial, Helvetica, sans-serif'" font-size="11" lengthAdjust="spacing" textLength="164.5488" x="810.0566" y="569.4043">POST /v1/audio/transcriptions</text><text fill="#555555" font-family="'Segoe UI, Arial, Helvetica, sans-serif'" font-size="11" lengthAdjust="spacing" textLength="162.1426" x="810.0566" y="582.3594">(multipart: file + diarize=true)</text></g><g class="message" data-entity-1="part4" data-entity-2="part4" id="msg13"><line style="stroke:#666666;stroke-width:1;" x1="803.0566" x2="845.0566" y1="613.6348" y2="613.6348"/><line style="stroke:#666666;stroke-width:1;" x1="845.0566" x2="845.0566" y1="613.6348" y2="626.6348"/><line style="stroke:#666666;stroke-width:1;" x1="804.0566" x2="845.0566" y1="626.6348" y2="626.6348"/><polygon fill="#666666" points="814.0566,622.6348,804.0566,626.6348,814.0566,630.6348,810.0566,626.6348" style="stroke:#666666;stroke-width:1;"/><text fill="#555555" font-family="'Segoe UI, Arial, Helvetica, sans-serif'" font-size="11" lengthAdjust="spacing" textLength="126.6343" x="810.0566" y="609.3145">phash dedup on frames</text></g><g class="message" data-entity-1="part6" data-entity-2="part4" id="msg14"><polygon fill="#666666" points="814.0566,649.5898,804.0566,653.5898,814.0566,657.5898,810.0566,653.5898" style="stroke:#666666;stroke-width:1;"/><line style="stroke:#666666;stroke-width:1;stroke-dasharray:2,2;" x1="808.0566" x2="1125.3064" y1="653.5898" y2="653.5898"/><text fill="#555555" font-family="'Segoe UI, Arial, Helvetica, sans-serif'" font-size="11" lengthAdjust="spacing" textLength="206.4272" x="820.0566" y="649.2695">transcript with speakers + timestamps</text></g><g class="message" data-entity-1="part4" data-entity-2="part4" id="msg15"><line style="stroke:#666666;stroke-width:1;stroke-dasharray:2,2;" x1="803.0566" x2="845.0566" y1="680.5449" y2="680.5449"/><line style="stroke:#666666;stroke-width:1;stroke-dasharray:2,2;" x1="845.0566" x2="845.0566" y1="680.5449" y2="693.5449"/><line style="stroke:#666666;stroke-width:1;stroke-dasharray:2,2;" x1="804.0566" x2="845.0566" y1="693.5449" y2="693.5449"/><polygon fill="#666666" points="814.0566,689.5449,804.0566,693.5449,814.0566,697.5449,810.0566,693.5449" style="stroke:#666666;stroke-width:1;"/><text fill="#555555" font-family="'Segoe UI, Arial, Helvetica, sans-serif'" font-size="11" lengthAdjust="spacing" textLength="96.3789" x="810.0566" y="676.2246">unique frames list</text></g><g class="message" data-entity-1="part4" data-entity-2="part3" id="msg16"><polygon fill="#666666" points="555.9521,723.5,545.9521,727.5,555.9521,731.5,551.9521,727.5" style="stroke:#666666;stroke-width:1;"/><line style="stroke:#666666;stroke-width:1;" x1="549.9521" x2="802.0566" y1="727.5" y2="727.5"/><text fill="#555555" font-family="'Segoe UI, Arial, Helvetica, sans-serif'" font-size="11" lengthAdjust="spacing" textLength="234.1045" x="561.9521" y="723.1797">SSE: { step: "transcription", progress: 100% }</text></g><path d="M754.4041,742.5 L1039.8982,742.5 L1039.8982,747.4551 L1029.8982,757.4551 L752.4041,757.4551 L752.4041,744.5 A2,2 0 0 1 754.4041,742.5" fill="#EEEEEE" style="stroke:#000000;stroke-width:1.5;"/><rect fill="none" height="148.6855" rx="2" ry="2" style="stroke:#000000;stroke-width:1.5;" width="560.2998" x="752.4041" y="742.5"/><text fill="#000000" font-family="'Segoe UI, Arial, Helvetica, sans-serif'" font-size="11" font-weight="bold" lengthAdjust="spacing" textLength="242.4941" x="767.4041" y="754.1348">Parallel: Pass A (entities) + Vision Analysis</text><g class="message" data-entity-1="part4" data-entity-2="part8" id="msg17"><polygon fill="#666666" points="1249.584,785.3652,1259.584,789.3652,1249.584,793.3652,1253.584,789.3652" style="stroke:#666666;stroke-width:1;"/><line style="stroke:#666666;stroke-width:1;" x1="803.0566" x2="1255.584" y1="789.3652" y2="789.3652"/><text fill="#555555" font-family="'Segoe UI, Arial, Helvetica, sans-serif'" font-size="11" lengthAdjust="spacing" textLength="148.9673" x="810.0566" y="772.0898">POST /v1/chat/completions</text><text fill="#555555" font-family="'Segoe UI, Arial, Helvetica, sans-serif'" font-size="11" lengthAdjust="spacing" textLength="220.231" x="810.0566" y="785.0449">(Pass A: entity extraction from transcript)</text></g><g class="message" data-entity-1="part4" data-entity-2="part7" id="msg18"><polygon fill="#666666" points="1174.5264,825.2754,1184.5264,829.2754,1174.5264,833.2754,1178.5264,829.2754" style="stroke:#666666;stroke-width:1;"/><line style="stroke:#666666;stroke-width:1;" x1="803.0566" x2="1180.5264" y1="829.2754" y2="829.2754"/><text fill="#555555" font-family="'Segoe UI, Arial, Helvetica, sans-serif'" font-size="11" lengthAdjust="spacing" textLength="148.9673" x="810.0566" y="812">POST /v1/chat/completions</text><text fill="#555555" font-family="'Segoe UI, Arial, Helvetica, sans-serif'" font-size="11" lengthAdjust="spacing" textLength="183.9761" x="810.0566" y="824.9551">(batch frames, json_object format)</text></g><g class="message" data-entity-1="part8" data-entity-2="part4" id="msg19"><polygon fill="#666666" points="814.0566,852.2305,804.0566,856.2305,814.0566,860.2305,810.0566,856.2305" style="stroke:#666666;stroke-width:1;"/><line style="stroke:#666666;stroke-width:1;stroke-dasharray:2,2;" x1="808.0566" x2="1260.584" y1="856.2305" y2="856.2305"/><text fill="#555555" font-family="'Segoe UI, Arial, Helvetica, sans-serif'" font-size="11" lengthAdjust="spacing" textLength="206.395" x="820.0566" y="851.9102">entities (speakers, topics, claims, KPIs)</text></g><g class="message" data-entity-1="part7" data-entity-2="part4" id="msg20"><polygon fill="#666666" points="814.0566,879.1855,804.0566,883.1855,814.0566,887.1855,810.0566,883.1855" style="stroke:#666666;stroke-width:1;"/><line style="stroke:#666666;stroke-width:1;stroke-dasharray:2,2;" x1="808.0566" x2="1185.5264" y1="883.1855" y2="883.1855"/><text fill="#555555" font-family="'Segoe UI, Arial, Helvetica, sans-serif'" font-size="11" lengthAdjust="spacing" textLength="233.7017" x="820.0566" y="878.8652">vision events (OCR text, scene descriptions)</text></g><g class="message" data-entity-1="part4" data-entity-2="part3" id="msg21"><polygon fill="#666666" points="555.9521,913.1406,545.9521,917.1406,555.9521,921.1406,551.9521,917.1406" style="stroke:#666666;stroke-width:1;"/><line style="stroke:#666666;stroke-width:1;" x1="549.9521" x2="802.0566" y1="917.1406" y2="917.1406"/><text fill="#555555" font-family="'Segoe UI, Arial, Helvetica, sans-serif'" font-size="11" lengthAdjust="spacing" textLength="208.1621" x="561.9521" y="912.8203">SSE: { step: "analysis", progress: 100% }</text></g><rect fill="#EEEEEE" height="3" rx="2" ry="2" style="stroke:#EEEEEE;stroke-width:1;" width="1722.4956" x="0" y="944.6182"/><line style="stroke:#000000;stroke-width:1;" x1="0" x2="1722.4956" y1="944.6182" y2="944.6182"/><line style="stroke:#000000;stroke-width:1;" x1="0" x2="1722.4956" y1="947.6182" y2="947.6182"/><rect fill="#EEEEEE" height="20.9551" rx="2" ry="2" style="stroke:#000000;stroke-width:2;" width="194.748" x="763.8738" y="935.1406"/><text fill="#000000" font-family="'Segoe UI, Arial, Helvetica, sans-serif'" font-size="11" font-weight="bold" lengthAdjust="spacing" textLength="177.1226" x="769.8738" y="949.7754">Knowledge Graph Construction</text><g class="message" data-entity-1="part4" data-entity-2="part9" id="msg22"><polygon fill="#666666" points="1326.2368,981.0508,1336.2368,985.0508,1326.2368,989.0508,1330.2368,985.0508" style="stroke:#666666;stroke-width:1;"/><line style="stroke:#666666;stroke-width:1;" x1="803.0566" x2="1332.2368" y1="985.0508" y2="985.0508"/><text fill="#555555" font-family="'Segoe UI, Arial, Helvetica, sans-serif'" font-size="11" lengthAdjust="spacing" textLength="247.0435" x="810.0566" y="980.7305">Build graph from transcript + vision + entities</text></g><g class="message" data-entity-1="part9" data-entity-2="part9" id="msg23"><line style="stroke:#666666;stroke-width:1;" x1="1338.2368" x2="1380.2368" y1="1012.0059" y2="1012.0059"/><line style="stroke:#666666;stroke-width:1;" x1="1380.2368" x2="1380.2368" y1="1012.0059" y2="1025.0059"/><line style="stroke:#666666;stroke-width:1;" x1="1339.2368" x2="1380.2368" y1="1025.0059" y2="1025.0059"/><polygon fill="#666666" points="1349.2368,1021.0059,1339.2368,1025.0059,1349.2368,1029.0059,1345.2368,1025.0059" style="stroke:#666666;stroke-width:1;"/><text fill="#555555" font-family="'Segoe UI, Arial, Helvetica, sans-serif'" font-size="11" lengthAdjust="spacing" textLength="331.7886" x="1345.2368" y="1007.6855">Create nodes (speakers, topics, KPIs, slides, decisions, claims)</text></g><g class="message" data-entity-1="part9" data-entity-2="part9" id="msg24"><line style="stroke:#666666;stroke-width:1;" x1="1338.2368" x2="1380.2368" y1="1051.9609" y2="1051.9609"/><line style="stroke:#666666;stroke-width:1;" x1="1380.2368" x2="1380.2368" y1="1051.9609" y2="1064.9609"/><line style="stroke:#666666;stroke-width:1;" x1="1339.2368" x2="1380.2368" y1="1064.9609" y2="1064.9609"/><polygon fill="#666666" points="1349.2368,1060.9609,1339.2368,1064.9609,1349.2368,1068.9609,1345.2368,1064.9609" style="stroke:#666666;stroke-width:1;"/><text fill="#555555" font-family="'Segoe UI, Arial, Helvetica, sans-serif'" font-size="11" lengthAdjust="spacing" textLength="294.9912" x="1345.2368" y="1047.6406">Create edges (said_by, shown_during, contradicts, etc.)</text></g><g class="message" data-entity-1="part9" data-entity-2="part9" id="msg25"><line style="stroke:#666666;stroke-width:1;" x1="1338.2368" x2="1380.2368" y1="1091.916" y2="1091.916"/><line style="stroke:#666666;stroke-width:1;" x1="1380.2368" x2="1380.2368" y1="1091.916" y2="1104.916"/><line style="stroke:#666666;stroke-width:1;" x1="1339.2368" x2="1380.2368" y1="1104.916" y2="1104.916"/><polygon fill="#666666" points="1349.2368,1100.916,1339.2368,1104.916,1349.2368,1108.916,1345.2368,1104.916" style="stroke:#666666;stroke-width:1;"/><text fill="#555555" font-family="'Segoe UI, Arial, Helvetica, sans-serif'" font-size="11" lengthAdjust="spacing" textLength="197.4521" x="1345.2368" y="1087.5957">Cross-reference audio-visual signals</text></g><g class="message" data-entity-1="part9" data-entity-2="part9" id="msg26"><line style="stroke:#666666;stroke-width:1;" x1="1338.2368" x2="1380.2368" y1="1131.8711" y2="1131.8711"/><line style="stroke:#666666;stroke-width:1;" x1="1380.2368" x2="1380.2368" y1="1131.8711" y2="1144.8711"/><line style="stroke:#666666;stroke-width:1;" x1="1339.2368" x2="1380.2368" y1="1144.8711" y2="1144.8711"/><polygon fill="#666666" points="1349.2368,1140.8711,1339.2368,1144.8711,1349.2368,1148.8711,1345.2368,1144.8711" style="stroke:#666666;stroke-width:1;"/><text fill="#555555" font-family="'Segoe UI, Arial, Helvetica, sans-serif'" font-size="11" lengthAdjust="spacing" textLength="175.1621" x="1345.2368" y="1127.5508">Generate 60s timeline snapshots</text></g><g class="message" data-entity-1="part9" data-entity-2="part9" id="msg27"><line style="stroke:#666666;stroke-width:1;" x1="1338.2368" x2="1380.2368" y1="1171.8262" y2="1171.8262"/><line style="stroke:#666666;stroke-width:1;" x1="1380.2368" x2="1380.2368" y1="1171.8262" y2="1184.8262"/><line style="stroke:#666666;stroke-width:1;" x1="1339.2368" x2="1380.2368" y1="1184.8262" y2="1184.8262"/><polygon fill="#666666" points="1349.2368,1180.8262,1339.2368,1184.8262,1349.2368,1188.8262,1345.2368,1184.8262" style="stroke:#666666;stroke-width:1;"/><text fill="#555555" font-family="'Segoe UI, Arial, Helvetica, sans-serif'" font-size="11" lengthAdjust="spacing" textLength="227.8364" x="1345.2368" y="1167.5059">Serialize to compact format (~3.5k tokens)</text></g><g class="message" data-entity-1="part9" data-entity-2="part4" id="msg28"><polygon fill="#666666" points="814.0566,1207.7813,804.0566,1211.7813,814.0566,1215.7813,810.0566,1211.7813" style="stroke:#666666;stroke-width:1;"/><line style="stroke:#666666;stroke-width:1;stroke-dasharray:2,2;" x1="808.0566" x2="1337.2368" y1="1211.7813" y2="1211.7813"/><text fill="#555555" font-family="'Segoe UI, Arial, Helvetica, sans-serif'" font-size="11" lengthAdjust="spacing" textLength="148.4839" x="820.0566" y="1207.4609">Temporal Knowledge Graph</text></g><g class="message" data-entity-1="part4" data-entity-2="part3" id="msg29"><polygon fill="#666666" points="555.9521,1234.7363,545.9521,1238.7363,555.9521,1242.7363,551.9521,1238.7363" style="stroke:#666666;stroke-width:1;"/><line style="stroke:#666666;stroke-width:1;" x1="549.9521" x2="802.0566" y1="1238.7363" y2="1238.7363"/><text fill="#555555" font-family="'Segoe UI, Arial, Helvetica, sans-serif'" font-size="11" lengthAdjust="spacing" textLength="197.0493" x="561.9521" y="1234.416">SSE: { step: "graph", progress: 100% }</text></g><rect fill="#EEEEEE" height="3" rx="2" ry="2" style="stroke:#EEEEEE;stroke-width:1;" width="1722.4956" x="0" y="1266.2139"/><line style="stroke:#000000;stroke-width:1;" x1="0" x2="1722.4956" y1="1266.2139" y2="1266.2139"/><line style="stroke:#000000;stroke-width:1;" x1="0" x2="1722.4956" y1="1269.2139" y2="1269.2139"/><rect fill="#EEEEEE" height="20.9551" rx="2" ry="2" style="stroke:#000000;stroke-width:2;" width="119.8857" x="801.3049" y="1256.7363"/><text fill="#000000" font-family="'Segoe UI, Arial, Helvetica, sans-serif'" font-size="11" font-weight="bold" lengthAdjust="spacing" textLength="102.2603" x="807.3049" y="1271.3711">Insight Reasoning</text><g class="message" data-entity-1="part4" data-entity-2="part8" id="msg30"><polygon fill="#666666" points="1249.584,1315.6016,1259.584,1319.6016,1249.584,1323.6016,1253.584,1319.6016" style="stroke:#666666;stroke-width:1;"/><line style="stroke:#666666;stroke-width:1;" x1="803.0566" x2="1255.584" y1="1319.6016" y2="1319.6016"/><text fill="#555555" font-family="'Segoe UI, Arial, Helvetica, sans-serif'" font-size="11" lengthAdjust="spacing" textLength="148.9673" x="810.0566" y="1302.3262">POST /v1/chat/completions</text><text fill="#555555" font-family="'Segoe UI, Arial, Helvetica, sans-serif'" font-size="11" lengthAdjust="spacing" textLength="189.605" x="810.0566" y="1315.2813">(Pass B: reason on serialized graph)</text></g><g class="message" data-entity-1="part8" data-entity-2="part4" id="msg31"><polygon fill="#666666" points="814.0566,1355.5117,804.0566,1359.5117,814.0566,1363.5117,810.0566,1359.5117" style="stroke:#666666;stroke-width:1;"/><line style="stroke:#666666;stroke-width:1;stroke-dasharray:2,2;" x1="808.0566" x2="1260.584" y1="1359.5117" y2="1359.5117"/><text fill="#555555" font-family="'Segoe UI, Arial, Helvetica, sans-serif'" font-size="11" lengthAdjust="spacing" textLength="156.0303" x="820.0566" y="1342.2363">insights with evidence chains</text><text fill="#555555" font-family="'Segoe UI, Arial, Helvetica, sans-serif'" font-size="11" lengthAdjust="spacing" textLength="253.4189" x="820.0566" y="1355.1914">(topics, actions, decisions, contradictions, KPIs)</text></g><g class="message" data-entity-1="part4" data-entity-2="part10" id="msg32"><polygon fill="#666666" points="1672.0254,1382.4668,1682.0254,1386.4668,1672.0254,1390.4668,1676.0254,1386.4668" style="stroke:#666666;stroke-width:1;"/><line style="stroke:#666666;stroke-width:1;" x1="803.0566" x2="1678.0254" y1="1386.4668" y2="1386.4668"/><text fill="#555555" font-family="'Segoe UI, Arial, Helvetica, sans-serif'" font-size="11" lengthAdjust="spacing" textLength="246.0874" x="810.0566" y="1382.1465">Save all results (transcript + graph + insights)</text></g><g class="message" data-entity-1="part4" data-entity-2="part3" id="msg33"><polygon fill="#666666" points="555.9521,1409.4219,545.9521,1413.4219,555.9521,1417.4219,551.9521,1413.4219" style="stroke:#666666;stroke-width:1;"/><line style="stroke:#666666;stroke-width:1;" x1="549.9521" x2="802.0566" y1="1413.4219" y2="1413.4219"/><text fill="#555555" font-family="'Segoe UI, Arial, Helvetica, sans-serif'" font-size="11" lengthAdjust="spacing" textLength="214.9995" x="561.9521" y="1409.1016">SSE: { step: "complete", progress: 100% }</text></g><rect fill="#EEEEEE" height="3" rx="2" ry="2" style="stroke:#EEEEEE;stroke-width:1;" width="1722.4956" x="0" y="1440.8994"/><line style="stroke:#000000;stroke-width:1;" x1="0" x2="1722.4956" y1="1440.8994" y2="1440.8994"/><line style="stroke:#000000;stroke-width:1;" x1="0" x2="1722.4956" y1="1443.8994" y2="1443.8994"/><rect fill="#EEEEEE" height="20.9551" rx="2" ry="2" style="stroke:#000000;stroke-width:2;" width="59.3589" x="831.5684" y="1431.4219"/><text fill="#000000" font-family="'Segoe UI, Arial, Helvetica, sans-serif'" font-size="11" font-weight="bold" lengthAdjust="spacing" textLength="41.7334" x="837.5684" y="1446.0566">Results</text><g class="message" data-entity-1="part3" data-entity-2="part2" id="msg34"><polygon fill="#666666" points="308.5093,1477.332,298.5093,1481.332,308.5093,1485.332,304.5093,1481.332" style="stroke:#666666;stroke-width:1;"/><line style="stroke:#666666;stroke-width:1;stroke-dasharray:2,2;" x1="302.5093" x2="543.9521" y1="1481.332" y2="1481.332"/><text fill="#555555" font-family="'Segoe UI, Arial, Helvetica, sans-serif'" font-size="11" lengthAdjust="spacing" textLength="135.4106" x="314.5093" y="1477.0117">SSE: processing complete</text></g><g class="message" data-entity-1="part2" data-entity-2="part3" id="msg35"><polygon fill="#666666" points="532.9521,1504.2871,542.9521,1508.2871,532.9521,1512.2871,536.9521,1508.2871" style="stroke:#666666;stroke-width:1;"/><line style="stroke:#666666;stroke-width:1;" x1="297.5093" x2="538.9521" y1="1508.2871" y2="1508.2871"/><text fill="#555555" font-family="'Segoe UI, Arial, Helvetica, sans-serif'" font-size="11" lengthAdjust="spacing" textLength="139.4551" x="304.5093" y="1503.9668">GET /api/jobs/{id}/results</text></g><g class="message" data-entity-1="part3" data-entity-2="part10" id="msg36"><polygon fill="#666666" points="1672.0254,1531.2422,1682.0254,1535.2422,1672.0254,1539.2422,1676.0254,1535.2422" style="stroke:#666666;stroke-width:1;"/><line style="stroke:#666666;stroke-width:1;" x1="544.9521" x2="1678.0254" y1="1535.2422" y2="1535.2422"/><text fill="#555555" font-family="'Segoe UI, Arial, Helvetica, sans-serif'" font-size="11" lengthAdjust="spacing" textLength="86.0342" x="551.9521" y="1530.9219">Read job results</text></g><g class="message" data-entity-1="part10" data-entity-2="part3" id="msg37"><polygon fill="#666666" points="555.9521,1558.1973,545.9521,1562.1973,555.9521,1566.1973,551.9521,1562.1973" style="stroke:#666666;stroke-width:1;"/><line style="stroke:#666666;stroke-width:1;stroke-dasharray:2,2;" x1="549.9521" x2="1683.0254" y1="1562.1973" y2="1562.1973"/><text fill="#555555" font-family="'Segoe UI, Arial, Helvetica, sans-serif'" font-size="11" lengthAdjust="spacing" textLength="88.0269" x="561.9521" y="1557.877">Full results JSON</text></g><g class="message" data-entity-1="part3" data-entity-2="part2" id="msg38"><polygon fill="#666666" points="308.5093,1585.1523,298.5093,1589.1523,308.5093,1593.1523,304.5093,1589.1523" style="stroke:#666666;stroke-width:1;"/><line style="stroke:#666666;stroke-width:1;stroke-dasharray:2,2;" x1="302.5093" x2="543.9521" y1="1589.1523" y2="1589.1523"/><text fill="#555555" font-family="'Segoe UI, Arial, Helvetica, sans-serif'" font-size="11" lengthAdjust="spacing" textLength="152.8989" x="314.5093" y="1584.832">{ transcript, graph, insights }</text></g><g class="message" data-entity-1="part2" data-entity-2="part1" id="msg39"><polygon fill="#666666" points="30.9292,1612.1074,20.9292,1616.1074,30.9292,1620.1074,26.9292,1616.1074" style="stroke:#666666;stroke-width:1;"/><line style="stroke:#666666;stroke-width:1;stroke-dasharray:2,2;" x1="24.9292" x2="296.5093" y1="1616.1074" y2="1616.1074"/><text fill="#555555" font-family="'Segoe UI, Arial, Helvetica, sans-serif'" font-size="11" lengthAdjust="spacing" textLength="253.5801" x="36.9292" y="1611.7871">Analysis view with 3 panels + knowledge graph</text></g><?plantuml-src bLRlRzis4Fskl-AGOOEzs762hi5W80ESh6dJNp7gDliI8A2biyr49ZMIifiMtT--HrAofTHfDWM1RV7ntTsxu_7idLI5C6996Sz4cRjphTnxiMJQc_1SCtswwD78I97tw1NdAtOo5JsoGjc-PIDdUudTHJ6HNvYEZXgBTY4olPPgJZEHMswi65sgx4mRnOP-QxoVyDybgvHFzUTJaTxDArok3VqqEvxzFXEFWBN9s5J0x2XxdZM1Os4GWoo4Sj-pXkSHS9DrUkZ_TfX_AsVuLzn2f-5fe4V6w7MrU1oUXujUmmhmF3n9ugJBcTu9gUWyrslgqvNCMDEd8jSY8wTff4H-RwMb3soH1via8dMW-8HCaR1KuZCfjY7Hthc17LRPjNhFdzt1hTtpk1ctKLudW6WqlhXMvy8wV0b0KSWsyjAa2xRE29WD28qN3qoUBmkUHpip_xMzVAK_Otj-hKQJ3m6qYY_QgB6iK5VIIgq2i90xWE-azoQdoLBaWBzz-ovWb_5r6_lIY69nhKvBcIDt0JVthv9CE34L5cVYjPxI1B69EL-hrvFBzm6LJPFavAHEnCb9ueMc_XyGaeRq9z3q2sL65xJo6Klm6eiG3wlZoyb76k3xe8pREqkaJdh7kec709bD0JmpB1pJBJpeM2TSQOSKj-1CLT3Qv5SFkv4P3gh3jkLDQNBwrhBxyaLb5aWx-2gpRuE8fSvaye9iERMfaLFkXj36HgTihJ-zOrbmZWhtSLR--II3SkBWDD9GhGjxhz8ayGUiy0S92U1yIACoavhswTpuBlF2vonro652U0AJZo9K1ZYhTH9XL-Ve-ExL5_fhTDNzCNpcoIs4IXcUPEmOB_VfsQ7rtIUVeg0ZGxMpluqYM3fOYzKZwv5wyEl1RJ5FS2gIfFOY2WlrV0Aius98Uxo9Rwz7XT5p0nc7T7Hu-3CIyfqu7mqQAtGl_8wDI7zoLXQjWAj3iQcVrT4W-3rmJG9xhRRL1Cyb-iS-PL8OTESJPqfkorX5M2o4NK0q62Lu4GCEmDfiGuwjGLfBjo1RiBXZOs78IUnpObdOXfNjpb99zCmwLJbEvDDojiBxJugEXRKqeWuhz4_9jWl7OjFOjCkM1bLdQ2gRBeGRf7fPv5oh6bc755ZlQPjbXAEN3L7Q0bSjwWdogN20HrrwT6krkj7JMr_1CssMekAi7MqeMiU8kg-oqCErKCWKdsakv1AVRyONDXBKpZG8Lb4ONe49B9Td7yWXDhIHwXnjIwlxTB94fU_EFA6fl55wdNCsPmgTbyv0YwACEgAxrDoX2OCzDERgrmEPaTJAz_sD2ab4DWYg5gfqjbiZhmrYpT6ayPbn6YWtudKVPVH1U4OXivlfFIWMUgrkijAWOM8txbY3DfqwKB5B3tOIQMlxXcTi_1WHkr0VCPN8a9LpIBaZe9V8Yl4E7AEn-UCM6gzLee07RiU62VjHpizc61TyrObDLL7ddsS7p--mWBj-6-ksE3xoij2-O1xaxST546WUgu0BXT0M3lEAG9NxswMHzlzn4a-7P0A5xrUsZh6gbMwouwZ8QDd6fiN-NlQomu0Cj7L9n5Fze1es-Oo_uv7Q-1rkwubO8Obv3h_2A4QTLh56SVStRdH_g64LCJycOpNkRMxaUWm8BCNswgvvdXe4AfzRumTIb8NXerx4s_w6vBniXEhdeeVpo3RwNWo-jqr174o03MFJS3l6hYIlOuAU4KOqplsjShUflZYS_Gi0?></g></svg>