<?plantuml 1.2026.1?><svg xmlns="http://www.w3.org/2000/svg" xmlns:xlink="http://www.w3.org/1999/xlink" contentStyleType="text/css" data-diagram-type="CLASS" height="861px" preserveAspectRatio="none" style="width:1138px;height:861px;background:#FFFFFF;" version="1.1" viewBox="0 0 1138 861" width="1138px" zoomAndPan="magnify"><title>Temporal Knowledge Graph - Data Model</title><defs/><g><g class="title" data-source-line="14"><text fill="#000000" font-family="'Segoe UI, Arial, Helvetica, sans-serif'" font-size="14" font-weight="bold" lengthAdjust="spacing" textLength="300.8633" x="411.5684" y="23.5352">Temporal Knowledge Graph - Data Model</text></g><!--cluster Graph Nodes--><g class="cluster" data-qualified-name="Graph Nodes" data-source-line="16" id="ent0002"><path d="M803,481.8983 L874.2402,481.8983 A6,6 0 0 1 878.2402,485.8983 L885.2402,500.8534 L979,500.8534 A4,4 0 0 1 983,504.8534 L983,850.8383 A4,4 0 0 1 979,854.8383 L803,854.8383 A4,4 0 0 1 799,850.8383 L799,485.8983 A4,4 0 0 1 803,481.8983" fill="none" style="stroke:#000000;stroke-width:1.5;"/><line style="stroke:#000000;stroke-width:1.5;" x1="799" x2="885.2402" y1="500.8534" y2="500.8534"/><text fill="#000000" font-family="'Segoe UI, Arial, Helvetica, sans-serif'" font-size="11" font-weight="bold" lengthAdjust="spacing" textLength="73.2402" x="803" y="494.533">Graph Nodes</text></g><!--cluster Graph Edges--><g class="cluster" data-qualified-name="Graph Edges" data-source-line="36" id="ent0005"><path d="M381,269.1683 L450.6235,269.1683 A6,6 0 0 1 454.6235,273.1683 L461.6235,288.1234 L771,288.1234 A4,4 0 0 1 775,292.1234 L775,653.1083 A4,4 0 0 1 771,657.1083 L381,657.1083 A4,4 0 0 1 377,653.1083 L377,273.1683 A4,4 0 0 1 381,269.1683" fill="none" style="stroke:#000000;stroke-width:1.5;"/><line style="stroke:#000000;stroke-width:1.5;" x1="377" x2="461.6235" y1="288.1234" y2="288.1234"/><text fill="#000000" font-family="'Segoe UI, Arial, Helvetica, sans-serif'" font-size="11" font-weight="bold" lengthAdjust="spacing" textLength="71.6235" x="381" y="281.803">Graph Edges</text></g><!--cluster Graph Container--><g class="cluster" data-qualified-name="Graph Container" data-source-line="64" id="ent0009"><path d="M10,62.9183 L101.0649,62.9183 A6,6 0 0 1 105.0649,66.9183 L112.0649,81.8734 L349,81.8734 A4,4 0 0 1 353,85.8734 L353,427.4183 A4,4 0 0 1 349,431.4183 L10,431.4183 A4,4 0 0 1 6,427.4183 L6,66.9183 A4,4 0 0 1 10,62.9183" fill="none" style="stroke:#000000;stroke-width:1.5;"/><line style="stroke:#000000;stroke-width:1.5;" x1="6" x2="112.0649" y1="81.8734" y2="81.8734"/><text fill="#000000" font-family="'Segoe UI, Arial, Helvetica, sans-serif'" font-size="11" font-weight="bold" lengthAdjust="spacing" textLength="93.0649" x="10" y="75.553">Graph Container</text></g><!--cluster Insight Output--><g class="cluster" data-qualified-name="Insight Output" data-source-line="88" id="ent0013"><path d="M925,43.4883 L1005.9404,43.4883 A6,6 0 0 1 1009.9404,47.4883 L1016.9404,62.4434 L1127,62.4434 A4,4 0 0 1 1131,66.4434 L1131,427.4183 A4,4 0 0 1 1127,431.4183 L925,431.4183 A4,4 0 0 1 921,427.4183 L921,47.4883 A4,4 0 0 1 925,43.4883" fill="none" style="stroke:#000000;stroke-width:1.5;"/><line style="stroke:#000000;stroke-width:1.5;" x1="921" x2="1016.9404" y1="62.4434" y2="62.4434"/><text fill="#000000" font-family="'Segoe UI, Arial, Helvetica, sans-serif'" font-size="11" font-weight="bold" lengthAdjust="spacing" textLength="82.9404" x="925" y="56.123">Insight Output</text></g><!--class Node--><g class="entity" data-qualified-name="Graph Nodes.Node" data-source-line="17" id="ent0003"><rect fill="#F1F1F1" height="121.7305" rx="4" ry="4" style="stroke:#B0B0B0;stroke-width:0.5;" width="152.3682" x="814.82" y="512.8983"/><rect fill="#F0F0F0" height="28" rx="4" ry="4" style="stroke:#F0F0F0;stroke-width:0.5;" width="152.3682" x="814.82" y="512.8983"/><rect fill="#F0F0F0" height="4" style="stroke:#F0F0F0;stroke-width:0.5;" width="152.3682" x="814.82" y="536.8983"/><rect fill="none" height="121.7305" rx="4" ry="4" style="stroke:#B0B0B0;stroke-width:0.5;" width="152.3682" x="814.82" y="512.8983"/><ellipse cx="873.2866" cy="526.8983" fill="#ADD1B2" rx="9" ry="9" style="stroke:#181818;stroke-width:1;"/><path d="M874.5927,530.6673 Q874.2167,530.8607 873.8032,530.9574 Q873.3896,531.054 872.933,531.054 Q871.311,531.054 870.457,529.9852 Q869.603,528.9163 869.603,526.8968 Q869.603,524.8719 870.457,523.8031 Q871.311,522.7342 872.933,522.7342 Q873.3896,522.7342 873.8085,522.8309 Q874.2275,522.9276 874.5927,523.1209 L874.5927,524.8827 Q874.1845,524.5067 873.8005,524.3321 Q873.4164,524.1576 873.0082,524.1576 Q872.1381,524.1576 871.695,524.8477 Q871.2519,525.5379 871.2519,526.8968 Q871.2519,528.2503 871.695,528.9405 Q872.1381,529.6307 873.0082,529.6307 Q873.4164,529.6307 873.8005,529.4561 Q874.1845,529.2816 874.5927,528.9056 Z " fill="#000000"/><text fill="#555555" font-family="'Segoe UI, Arial, Helvetica, sans-serif'" font-size="11" lengthAdjust="spacing" textLength="27.9351" x="890.7866" y="531.0555">Node</text><line style="stroke:#B0B0B0;stroke-width:0.5;" x1="815.82" x2="966.1882" y1="540.8983" y2="540.8983"/><text fill="#555555" font-family="'Segoe UI, Arial, Helvetica, sans-serif'" font-size="11" lengthAdjust="spacing" textLength="51.6323" x="820.82" y="555.533">id : string</text><text fill="#555555" font-family="'Segoe UI, Arial, Helvetica, sans-serif'" font-size="11" lengthAdjust="spacing" textLength="87.0439" x="820.82" y="568.4881">type : NodeType</text><text fill="#555555" font-family="'Segoe UI, Arial, Helvetica, sans-serif'" font-size="11" lengthAdjust="spacing" textLength="67.0151" x="820.82" y="581.4432">label : string</text><text fill="#555555" font-family="'Segoe UI, Arial, Helvetica, sans-serif'" font-size="11" lengthAdjust="spacing" textLength="81.877" x="820.82" y="594.3983">attributes : dict</text><line style="stroke:#B0B0B0;stroke-width:0.5;" x1="815.82" x2="966.1882" y1="600.7186" y2="600.7186"/><text fill="#555555" font-family="'Segoe UI, Arial, Helvetica, sans-serif'" font-size="11" lengthAdjust="spacing" textLength="140.3682" x="820.82" y="615.3534">first_seen : float (seconds)</text><text fill="#555555" font-family="'Segoe UI, Arial, Helvetica, sans-serif'" font-size="11" lengthAdjust="spacing" textLength="137.8975" x="820.82" y="628.3084">last_seen : float (seconds)</text></g><!--class NodeType--><g class="entity" data-qualified-name="Graph Nodes.NodeType" data-source-line="26" id="ent0004"><rect fill="#F1F1F1" height="121.7305" rx="4" ry="4" style="stroke:#B0B0B0;stroke-width:0.5;" width="81.6895" x="850.16" y="717.1083"/><rect fill="#F0F0F0" height="28" rx="4" ry="4" style="stroke:#F0F0F0;stroke-width:0.5;" width="81.6895" x="850.16" y="717.1083"/><rect fill="#F0F0F0" height="4" style="stroke:#F0F0F0;stroke-width:0.5;" width="81.6895" x="850.16" y="741.1083"/><rect fill="none" height="121.7305" rx="4" ry="4" style="stroke:#B0B0B0;stroke-width:0.5;" width="81.6895" x="850.16" y="717.1083"/><ellipse cx="863.16" cy="731.1083" fill="#EB937F" rx="9" ry="9" style="stroke:#181818;stroke-width:1;"/><path d="M866.0575,735.1083 L861.0623,735.1083 L861.0623,727.0892 L866.0575,727.0892 L866.0575,728.4857 L862.6468,728.4857 L862.6468,730.2152 L865.7352,730.2152 L865.7352,731.6117 L862.6468,731.6117 L862.6468,733.7118 L866.0575,733.7118 Z " fill="#000000"/><text fill="#555555" font-family="'Segoe UI, Arial, Helvetica, sans-serif'" font-size="11" lengthAdjust="spacing" textLength="53.6895" x="875.16" y="735.2655">NodeType</text><line style="stroke:#B0B0B0;stroke-width:0.5;" x1="851.16" x2="930.8495" y1="745.1083" y2="745.1083"/><text fill="#555555" font-family="'Segoe UI, Arial, Helvetica, sans-serif'" font-size="11" lengthAdjust="spacing" textLength="41.7925" x="856.16" y="759.743">speaker</text><text fill="#555555" font-family="'Segoe UI, Arial, Helvetica, sans-serif'" font-size="11" lengthAdjust="spacing" textLength="26.6084" x="856.16" y="772.6981">topic</text><text fill="#555555" font-family="'Segoe UI, Arial, Helvetica, sans-serif'" font-size="11" lengthAdjust="spacing" textLength="16.5322" x="856.16" y="785.6532">kpi</text><text fill="#555555" font-family="'Segoe UI, Arial, Helvetica, sans-serif'" font-size="11" lengthAdjust="spacing" textLength="25.0186" x="856.16" y="798.6083">slide</text><text fill="#555555" font-family="'Segoe UI, Arial, Helvetica, sans-serif'" font-size="11" lengthAdjust="spacing" textLength="44.2363" x="856.16" y="811.5634">decision</text><text fill="#555555" font-family="'Segoe UI, Arial, Helvetica, sans-serif'" font-size="11" lengthAdjust="spacing" textLength="28.3379" x="856.16" y="824.5184">claim</text><line style="stroke:#B0B0B0;stroke-width:0.5;" x1="851.16" x2="930.8495" y1="830.8388" y2="830.8388"/></g><!--class Edge--><g class="entity" data-qualified-name="Graph Edges.Edge" data-source-line="37" id="ent0006"><rect fill="#F1F1F1" height="121.7305" rx="4" ry="4" style="stroke:#B0B0B0;stroke-width:0.5;" width="157.4116" x="429.29" y="300.1683"/><rect fill="#F0F0F0" height="28" rx="4" ry="4" style="stroke:#F0F0F0;stroke-width:0.5;" width="157.4116" x="429.29" y="300.1683"/><rect fill="#F0F0F0" height="4" style="stroke:#F0F0F0;stroke-width:0.5;" width="157.4116" x="429.29" y="324.1683"/><rect fill="none" height="121.7305" rx="4" ry="4" style="stroke:#B0B0B0;stroke-width:0.5;" width="157.4116" x="429.29" y="300.1683"/><ellipse cx="491.3095" cy="314.1683" fill="#ADD1B2" rx="9" ry="9" style="stroke:#181818;stroke-width:1;"/><path d="M492.6157,317.9373 Q492.2397,318.1307 491.8261,318.2274 Q491.4126,318.324 490.956,318.324 Q489.3339,318.324 488.4799,317.2552 Q487.6259,316.1863 487.6259,314.1668 Q487.6259,312.1419 488.4799,311.0731 Q489.3339,310.0042 490.956,310.0042 Q491.4126,310.0042 491.8315,310.1009 Q492.2504,310.1976 492.6157,310.3909 L492.6157,312.1527 Q492.2075,311.7767 491.8234,311.6021 Q491.4394,311.4276 491.0312,311.4276 Q490.1611,311.4276 489.718,312.1177 Q489.2749,312.8079 489.2749,314.1668 Q489.2749,315.5203 489.718,316.2105 Q490.1611,316.9007 491.0312,316.9007 Q491.4394,316.9007 491.8234,316.7261 Q492.2075,316.5516 492.6157,316.1756 Z " fill="#000000"/><text fill="#555555" font-family="'Segoe UI, Arial, Helvetica, sans-serif'" font-size="11" lengthAdjust="spacing" textLength="25.8726" x="508.8095" y="318.3255">Edge</text><line style="stroke:#B0B0B0;stroke-width:0.5;" x1="430.29" x2="585.7016" y1="328.1683" y2="328.1683"/><text fill="#555555" font-family="'Segoe UI, Arial, Helvetica, sans-serif'" font-size="11" lengthAdjust="spacing" textLength="120.1729" x="435.29" y="342.803">relation : RelationType</text><text fill="#555555" font-family="'Segoe UI, Arial, Helvetica, sans-serif'" font-size="11" lengthAdjust="spacing" textLength="103.5601" x="435.29" y="355.7581">evidence : Evidence</text><line style="stroke:#B0B0B0;stroke-width:0.5;" x1="430.29" x2="585.7016" y1="362.0784" y2="362.0784"/><text fill="#555555" font-family="'Segoe UI, Arial, Helvetica, sans-serif'" font-size="11" lengthAdjust="spacing" textLength="129.8569" x="435.29" y="376.7132">source : string (node_id)</text><text fill="#555555" font-family="'Segoe UI, Arial, Helvetica, sans-serif'" font-size="11" lengthAdjust="spacing" textLength="126.1938" x="435.29" y="389.6683">target : string (node_id)</text><text fill="#555555" font-family="'Segoe UI, Arial, Helvetica, sans-serif'" font-size="11" lengthAdjust="spacing" textLength="145.4116" x="435.29" y="402.6234">timestamp : float (seconds)</text><text fill="#555555" font-family="'Segoe UI, Arial, Helvetica, sans-serif'" font-size="11" lengthAdjust="spacing" textLength="123.605" x="435.29" y="415.5784">confidence : float (0-1)</text></g><!--class RelationType--><g class="entity" data-qualified-name="Graph Edges.RelationType" data-source-line="46" id="ent0007"><rect fill="#F1F1F1" height="134.6855" rx="4" ry="4" style="stroke:#B0B0B0;stroke-width:0.5;" width="96.9702" x="392.51" y="506.4183"/><rect fill="#F0F0F0" height="28" rx="4" ry="4" style="stroke:#F0F0F0;stroke-width:0.5;" width="96.9702" x="392.51" y="506.4183"/><rect fill="#F0F0F0" height="4" style="stroke:#F0F0F0;stroke-width:0.5;" width="96.9702" x="392.51" y="530.4183"/><rect fill="none" height="134.6855" rx="4" ry="4" style="stroke:#B0B0B0;stroke-width:0.5;" width="96.9702" x="392.51" y="506.4183"/><ellipse cx="405.51" cy="520.4183" fill="#EB937F" rx="9" ry="9" style="stroke:#181818;stroke-width:1;"/><path d="M408.4075,524.4183 L403.4123,524.4183 L403.4123,516.3992 L408.4075,516.3992 L408.4075,517.7957 L404.9968,517.7957 L404.9968,519.5252 L408.0852,519.5252 L408.0852,520.9217 L404.9968,520.9217 L404.9968,523.0218 L408.4075,523.0218 Z " fill="#000000"/><text fill="#555555" font-family="'Segoe UI, Arial, Helvetica, sans-serif'" font-size="11" lengthAdjust="spacing" textLength="68.9702" x="417.51" y="524.5755">RelationType</text><line style="stroke:#B0B0B0;stroke-width:0.5;" x1="393.51" x2="488.4802" y1="534.4183" y2="534.4183"/><text fill="#555555" font-family="'Segoe UI, Arial, Helvetica, sans-serif'" font-size="11" lengthAdjust="spacing" textLength="57.1538" x="398.51" y="549.053">mentioned</text><text fill="#555555" font-family="'Segoe UI, Arial, Helvetica, sans-serif'" font-size="11" lengthAdjust="spacing" textLength="39.9556" x="398.51" y="562.0081">said_by</text><text fill="#555555" font-family="'Segoe UI, Arial, Helvetica, sans-serif'" font-size="11" lengthAdjust="spacing" textLength="75.1094" x="398.51" y="574.9632">shown_during</text><text fill="#555555" font-family="'Segoe UI, Arial, Helvetica, sans-serif'" font-size="11" lengthAdjust="spacing" textLength="59.3667" x="398.51" y="587.9183">contradicts</text><text fill="#555555" font-family="'Segoe UI, Arial, Helvetica, sans-serif'" font-size="11" lengthAdjust="spacing" textLength="41.8408" x="398.51" y="600.8734">decided</text><text fill="#555555" font-family="'Segoe UI, Arial, Helvetica, sans-serif'" font-size="11" lengthAdjust="spacing" textLength="73.7612" x="398.51" y="613.8284">committed_to</text><text fill="#555555" font-family="'Segoe UI, Arial, Helvetica, sans-serif'" font-size="11" lengthAdjust="spacing" textLength="53.4209" x="398.51" y="626.7835">related_to</text><line style="stroke:#B0B0B0;stroke-width:0.5;" x1="393.51" x2="488.4802" y1="633.1038" y2="633.1038"/></g><!--class Evidence--><g class="entity" data-qualified-name="Graph Edges.Evidence" data-source-line="56" id="ent0008"><rect fill="#F1F1F1" height="95.8203" rx="4" ry="4" style="stroke:#B0B0B0;stroke-width:0.5;" width="234.2344" x="524.88" y="525.8583"/><rect fill="#F0F0F0" height="28" rx="4" ry="4" style="stroke:#F0F0F0;stroke-width:0.5;" width="234.2344" x="524.88" y="525.8583"/><rect fill="#F0F0F0" height="4" style="stroke:#F0F0F0;stroke-width:0.5;" width="234.2344" x="524.88" y="549.8583"/><rect fill="none" height="95.8203" rx="4" ry="4" style="stroke:#B0B0B0;stroke-width:0.5;" width="234.2344" x="524.88" y="525.8583"/><ellipse cx="615.0092" cy="539.8583" fill="#ADD1B2" rx="9" ry="9" style="stroke:#181818;stroke-width:1;"/><path d="M616.3153,543.6273 Q615.9393,543.8207 615.5258,543.9174 Q615.1122,544.014 614.6556,544.014 Q613.0336,544.014 612.1796,542.9452 Q611.3256,541.8763 611.3256,539.8568 Q611.3256,537.8319 612.1796,536.7631 Q613.0336,535.6942 614.6556,535.6942 Q615.1122,535.6942 615.5311,535.7909 Q615.9501,535.8876 616.3153,536.0809 L616.3153,537.8427 Q615.9071,537.4667 615.5231,537.2921 Q615.139,537.1176 614.7308,537.1176 Q613.8607,537.1176 613.4176,537.8077 Q612.9745,538.4979 612.9745,539.8568 Q612.9745,541.2103 613.4176,541.9005 Q613.8607,542.5907 614.7308,542.5907 Q615.139,542.5907 615.5231,542.4161 Q615.9071,542.2416 616.3153,541.8656 Z " fill="#000000"/><text fill="#555555" font-family="'Segoe UI, Arial, Helvetica, sans-serif'" font-size="11" lengthAdjust="spacing" textLength="46.4761" x="632.5092" y="544.0155">Evidence</text><line style="stroke:#B0B0B0;stroke-width:0.5;" x1="525.88" x2="758.1144" y1="553.8583" y2="553.8583"/><text fill="#555555" font-family="'Segoe UI, Arial, Helvetica, sans-serif'" font-size="11" lengthAdjust="spacing" textLength="222.2344" x="530.88" y="568.493">source_type : "audio" | "visual" | "merged"</text><text fill="#555555" font-family="'Segoe UI, Arial, Helvetica, sans-serif'" font-size="11" lengthAdjust="spacing" textLength="103.3613" x="530.88" y="581.4481">quote : string | null</text><text fill="#555555" font-family="'Segoe UI, Arial, Helvetica, sans-serif'" font-size="11" lengthAdjust="spacing" textLength="132.3867" x="530.88" y="594.4032">description : string | null</text><text fill="#555555" font-family="'Segoe UI, Arial, Helvetica, sans-serif'" font-size="11" lengthAdjust="spacing" textLength="133.0688" x="530.88" y="607.3583">frame_path : string | null</text><line style="stroke:#B0B0B0;stroke-width:0.5;" x1="525.88" x2="758.1144" y1="613.6786" y2="613.6786"/></g><!--class TemporalKnowledgeGraph--><g class="entity" data-qualified-name="Graph Container.TemporalKnowledgeGraph" data-source-line="65" id="ent0010"><rect fill="#F1F1F1" height="95.8203" rx="4" ry="4" style="stroke:#B0B0B0;stroke-width:0.5;" width="169.5229" x="167.24" y="93.9183"/><rect fill="#F0F0F0" height="28" rx="4" ry="4" style="stroke:#F0F0F0;stroke-width:0.5;" width="169.5229" x="167.24" y="93.9183"/><rect fill="#F0F0F0" height="4" style="stroke:#F0F0F0;stroke-width:0.5;" width="169.5229" x="167.24" y="117.9183"/><rect fill="none" height="95.8203" rx="4" ry="4" style="stroke:#B0B0B0;stroke-width:0.5;" width="169.5229" x="167.24" y="93.9183"/><ellipse cx="180.24" cy="107.9183" fill="#ADD1B2" rx="9" ry="9" style="stroke:#181818;stroke-width:1;"/><path d="M181.5462,111.6873 Q181.1702,111.8807 180.7566,111.9774 Q180.343,112.074 179.8865,112.074 Q178.2644,112.074 177.4104,111.0052 Q176.5564,109.9363 176.5564,107.9168 Q176.5564,105.8919 177.4104,104.8231 Q178.2644,103.7542 179.8865,103.7542 Q180.343,103.7542 180.762,103.8509 Q181.1809,103.9476 181.5462,104.1409 L181.5462,105.9027 Q181.1379,105.5267 180.7539,105.3521 Q180.3699,105.1776 179.9617,105.1776 Q179.0916,105.1776 178.6484,105.8677 Q178.2053,106.5579 178.2053,107.9168 Q178.2053,109.2703 178.6484,109.9605 Q179.0916,110.6507 179.9617,110.6507 Q180.3699,110.6507 180.7539,110.4761 Q181.1379,110.3016 181.5462,109.9256 Z " fill="#000000"/><text fill="#555555" font-family="'Segoe UI, Arial, Helvetica, sans-serif'" font-size="11" lengthAdjust="spacing" textLength="141.5229" x="192.24" y="112.0755">TemporalKnowledgeGraph</text><line style="stroke:#B0B0B0;stroke-width:0.5;" x1="168.24" x2="335.7629" y1="121.9183" y2="121.9183"/><text fill="#555555" font-family="'Segoe UI, Arial, Helvetica, sans-serif'" font-size="11" lengthAdjust="spacing" textLength="77.7734" x="173.24" y="136.553">nodes : Node[]</text><text fill="#555555" font-family="'Segoe UI, Arial, Helvetica, sans-serif'" font-size="11" lengthAdjust="spacing" textLength="75.1147" x="173.24" y="149.5081">edges : Edge[]</text><text fill="#555555" font-family="'Segoe UI, Arial, Helvetica, sans-serif'" font-size="11" lengthAdjust="spacing" textLength="155.5039" x="173.24" y="162.4632">timeline : TimelineSnapshot[]</text><text fill="#555555" font-family="'Segoe UI, Arial, Helvetica, sans-serif'" font-size="11" lengthAdjust="spacing" textLength="141.4692" x="173.24" y="175.4183">metadata : GraphMetadata</text><line style="stroke:#B0B0B0;stroke-width:0.5;" x1="168.24" x2="335.7629" y1="181.7386" y2="181.7386"/></g><!--class TimelineSnapshot--><g class="entity" data-qualified-name="Graph Container.TimelineSnapshot" data-source-line="72" id="ent0011"><rect fill="#F1F1F1" height="108.7754" rx="4" ry="4" style="stroke:#B0B0B0;stroke-width:0.5;" width="139.354" x="22.32" y="306.6483"/><rect fill="#F0F0F0" height="28" rx="4" ry="4" style="stroke:#F0F0F0;stroke-width:0.5;" width="139.354" x="22.32" y="306.6483"/><rect fill="#F0F0F0" height="4" style="stroke:#F0F0F0;stroke-width:0.5;" width="139.354" x="22.32" y="330.6483"/><rect fill="none" height="108.7754" rx="4" ry="4" style="stroke:#B0B0B0;stroke-width:0.5;" width="139.354" x="22.32" y="306.6483"/><ellipse cx="42.7235" cy="320.6483" fill="#ADD1B2" rx="9" ry="9" style="stroke:#181818;stroke-width:1;"/><path d="M44.0296,324.4173 Q43.6536,324.6107 43.2401,324.7074 Q42.8265,324.804 42.37,324.804 Q40.7479,324.804 39.8939,323.7352 Q39.0399,322.6663 39.0399,320.6468 Q39.0399,318.6219 39.8939,317.5531 Q40.7479,316.4842 42.37,316.4842 Q42.8265,316.4842 43.2454,316.5809 Q43.6644,316.6776 44.0296,316.8709 L44.0296,318.6327 Q43.6214,318.2567 43.2374,318.0821 Q42.8533,317.9076 42.4451,317.9076 Q41.575,317.9076 41.1319,318.5977 Q40.6888,319.2879 40.6888,320.6468 Q40.6888,322.0003 41.1319,322.6905 Q41.575,323.3807 42.4451,323.3807 Q42.8533,323.3807 43.2374,323.2061 Q43.6214,323.0316 44.0296,322.6556 Z " fill="#000000"/><text fill="#555555" font-family="'Segoe UI, Arial, Helvetica, sans-serif'" font-size="11" lengthAdjust="spacing" textLength="94.9019" x="56.3687" y="324.8055">TimelineSnapshot</text><line style="stroke:#B0B0B0;stroke-width:0.5;" x1="23.32" x2="160.674" y1="334.6483" y2="334.6483"/><text fill="#555555" font-family="'Segoe UI, Arial, Helvetica, sans-serif'" font-size="11" lengthAdjust="spacing" textLength="91.2925" x="28.32" y="349.283">timestamp : float</text><text fill="#555555" font-family="'Segoe UI, Arial, Helvetica, sans-serif'" font-size="11" lengthAdjust="spacing" textLength="117.251" x="28.32" y="362.2381">active_nodes : string[]</text><text fill="#555555" font-family="'Segoe UI, Arial, Helvetica, sans-serif'" font-size="11" lengthAdjust="spacing" textLength="116.6548" x="28.32" y="375.1932">active_edges : string[]</text><text fill="#555555" font-family="'Segoe UI, Arial, Helvetica, sans-serif'" font-size="11" lengthAdjust="spacing" textLength="112.1699" x="28.32" y="388.1483">current_topic : string</text><text fill="#555555" font-family="'Segoe UI, Arial, Helvetica, sans-serif'" font-size="11" lengthAdjust="spacing" textLength="127.354" x="28.32" y="401.1034">current_speaker : string</text><line style="stroke:#B0B0B0;stroke-width:0.5;" x1="23.32" x2="160.674" y1="407.4237" y2="407.4237"/></g><!--class GraphMetadata--><g class="entity" data-qualified-name="Graph Container.GraphMetadata" data-source-line="80" id="ent0012"><rect fill="#F1F1F1" height="95.8203" rx="4" ry="4" style="stroke:#B0B0B0;stroke-width:0.5;" width="140.7988" x="196.6" y="313.1283"/><rect fill="#F0F0F0" height="28" rx="4" ry="4" style="stroke:#F0F0F0;stroke-width:0.5;" width="140.7988" x="196.6" y="313.1283"/><rect fill="#F0F0F0" height="4" style="stroke:#F0F0F0;stroke-width:0.5;" width="140.7988" x="196.6" y="337.1283"/><rect fill="none" height="95.8203" rx="4" ry="4" style="stroke:#B0B0B0;stroke-width:0.5;" width="140.7988" x="196.6" y="313.1283"/><ellipse cx="223.7952" cy="327.1283" fill="#ADD1B2" rx="9" ry="9" style="stroke:#181818;stroke-width:1;"/><path d="M225.1014,330.8973 Q224.7254,331.0907 224.3118,331.1874 Q223.8982,331.284 223.4417,331.284 Q221.8196,331.284 220.9656,330.2152 Q220.1116,329.1463 220.1116,327.1268 Q220.1116,325.1019 220.9656,324.0331 Q221.8196,322.9642 223.4417,322.9642 Q223.8982,322.9642 224.3172,323.0609 Q224.7361,323.1576 225.1014,323.3509 L225.1014,325.1127 Q224.6932,324.7367 224.3091,324.5621 Q223.9251,324.3876 223.5169,324.3876 Q222.6468,324.3876 222.2037,325.0777 Q221.7605,325.7679 221.7605,327.1268 Q221.7605,328.4803 222.2037,329.1705 Q222.6468,329.8607 223.5169,329.8607 Q223.9251,329.8607 224.3091,329.6861 Q224.6932,329.5116 225.1014,329.1356 Z " fill="#000000"/><text fill="#555555" font-family="'Segoe UI, Arial, Helvetica, sans-serif'" font-size="11" lengthAdjust="spacing" textLength="81.2539" x="238.9497" y="331.2855">GraphMetadata</text><line style="stroke:#B0B0B0;stroke-width:0.5;" x1="197.6" x2="336.3988" y1="341.1283" y2="341.1283"/><text fill="#555555" font-family="'Segoe UI, Arial, Helvetica, sans-serif'" font-size="11" lengthAdjust="spacing" textLength="128.7988" x="202.6" y="355.763">duration_seconds : float</text><text fill="#555555" font-family="'Segoe UI, Arial, Helvetica, sans-serif'" font-size="11" lengthAdjust="spacing" textLength="86.5444" x="202.6" y="368.7181">total_nodes : int</text><text fill="#555555" font-family="'Segoe UI, Arial, Helvetica, sans-serif'" font-size="11" lengthAdjust="spacing" textLength="85.9482" x="202.6" y="381.6732">total_edges : int</text><text fill="#555555" font-family="'Segoe UI, Arial, Helvetica, sans-serif'" font-size="11" lengthAdjust="spacing" textLength="90.9487" x="202.6" y="394.6283">node_types : dict</text><line style="stroke:#B0B0B0;stroke-width:0.5;" x1="197.6" x2="336.3988" y1="400.9486" y2="400.9486"/></g><!--class InsightResult--><g class="entity" data-qualified-name="Insight Output.InsightResult" data-source-line="89" id="ent0014"><rect fill="#F1F1F1" height="134.6855" rx="4" ry="4" style="stroke:#B0B0B0;stroke-width:0.5;" width="178.2246" x="936.89" y="74.4883"/><rect fill="#F0F0F0" height="28" rx="4" ry="4" style="stroke:#F0F0F0;stroke-width:0.5;" width="178.2246" x="936.89" y="74.4883"/><rect fill="#F0F0F0" height="4" style="stroke:#F0F0F0;stroke-width:0.5;" width="178.2246" x="936.89" y="98.4883"/><rect fill="none" height="134.6855" rx="4" ry="4" style="stroke:#B0B0B0;stroke-width:0.5;" width="178.2246" x="936.89" y="74.4883"/><ellipse cx="987.555" cy="88.4883" fill="#ADD1B2" rx="9" ry="9" style="stroke:#181818;stroke-width:1;"/><path d="M988.8612,92.2573 Q988.4852,92.4507 988.0716,92.5474 Q987.6581,92.644 987.2015,92.644 Q985.5795,92.644 984.7254,91.5752 Q983.8714,90.5063 983.8714,88.4868 Q983.8714,86.4619 984.7254,85.3931 Q985.5795,84.3242 987.2015,84.3242 Q987.6581,84.3242 988.077,84.4209 Q988.496,84.5176 988.8612,84.7109 L988.8612,86.4727 Q988.453,86.0967 988.069,85.9221 Q987.6849,85.7476 987.2767,85.7476 Q986.4066,85.7476 985.9635,86.4377 Q985.5204,87.1279 985.5204,88.4868 Q985.5204,89.8403 985.9635,90.5305 Q986.4066,91.2207 987.2767,91.2207 Q987.6849,91.2207 988.069,91.0461 Q988.453,90.8716 988.8612,90.4956 Z " fill="#000000"/><text fill="#555555" font-family="'Segoe UI, Arial, Helvetica, sans-serif'" font-size="11" lengthAdjust="spacing" textLength="69.3945" x="1005.055" y="92.6455">InsightResult</text><line style="stroke:#B0B0B0;stroke-width:0.5;" x1="937.89" x2="1114.1146" y1="102.4883" y2="102.4883"/><text fill="#555555" font-family="'Segoe UI, Arial, Helvetica, sans-serif'" font-size="11" lengthAdjust="spacing" textLength="90.8252" x="942.89" y="117.123">summary : string</text><text fill="#555555" font-family="'Segoe UI, Arial, Helvetica, sans-serif'" font-size="11" lengthAdjust="spacing" textLength="115.8438" x="942.89" y="130.0781">topics : TopicInsight[]</text><text fill="#555555" font-family="'Segoe UI, Arial, Helvetica, sans-serif'" font-size="11" lengthAdjust="spacing" textLength="142.7637" x="942.89" y="143.0332">action_items : ActionItem[]</text><text fill="#555555" font-family="'Segoe UI, Arial, Helvetica, sans-serif'" font-size="11" lengthAdjust="spacing" textLength="112.9917" x="942.89" y="155.9883">decisions : Decision[]</text><text fill="#555555" font-family="'Segoe UI, Arial, Helvetica, sans-serif'" font-size="11" lengthAdjust="spacing" textLength="166.2246" x="942.89" y="168.9434">contradictions : Contradiction[]</text><text fill="#555555" font-family="'Segoe UI, Arial, Helvetica, sans-serif'" font-size="11" lengthAdjust="spacing" textLength="56.1655" x="942.89" y="181.8984">kpis : KPI[]</text><text fill="#555555" font-family="'Segoe UI, Arial, Helvetica, sans-serif'" font-size="11" lengthAdjust="spacing" textLength="110.1289" x="942.89" y="194.8535">key_quotes : Quote[]</text><line style="stroke:#B0B0B0;stroke-width:0.5;" x1="937.89" x2="1114.1146" y1="201.1738" y2="201.1738"/></g><!--class EvidenceChain--><g class="entity" data-qualified-name="Insight Output.EvidenceChain" data-source-line="99" id="ent0015"><rect fill="#F1F1F1" height="108.7754" rx="4" ry="4" style="stroke:#B0B0B0;stroke-width:0.5;" width="145.7241" x="950.14" y="306.6483"/><rect fill="#F0F0F0" height="28" rx="4" ry="4" style="stroke:#F0F0F0;stroke-width:0.5;" width="145.7241" x="950.14" y="306.6483"/><rect fill="#F0F0F0" height="4" style="stroke:#F0F0F0;stroke-width:0.5;" width="145.7241" x="950.14" y="330.6483"/><rect fill="none" height="108.7754" rx="4" ry="4" style="stroke:#B0B0B0;stroke-width:0.5;" width="145.7241" x="950.14" y="306.6483"/><ellipse cx="981.4683" cy="320.6483" fill="#ADD1B2" rx="9" ry="9" style="stroke:#181818;stroke-width:1;"/><path d="M982.7744,324.4173 Q982.3984,324.6107 981.9849,324.7074 Q981.5713,324.804 981.1148,324.804 Q979.4927,324.804 978.6387,323.7352 Q977.7847,322.6663 977.7847,320.6468 Q977.7847,318.6219 978.6387,317.5531 Q979.4927,316.4842 981.1148,316.4842 Q981.5713,316.4842 981.9902,316.5809 Q982.4092,316.6776 982.7744,316.8709 L982.7744,318.6327 Q982.3662,318.2567 981.9822,318.0821 Q981.5982,317.9076 981.19,317.9076 Q980.3198,317.9076 979.8767,318.5977 Q979.4336,319.2879 979.4336,320.6468 Q979.4336,322.0003 979.8767,322.6905 Q980.3198,323.3807 981.19,323.3807 Q981.5982,323.3807 981.9822,323.2061 Q982.3662,323.0316 982.7744,322.6556 Z " fill="#000000"/><text fill="#555555" font-family="'Segoe UI, Arial, Helvetica, sans-serif'" font-size="11" lengthAdjust="spacing" textLength="76.9946" x="997.5412" y="324.8055">EvidenceChain</text><line style="stroke:#B0B0B0;stroke-width:0.5;" x1="951.14" x2="1094.8641" y1="334.6483" y2="334.6483"/><text fill="#555555" font-family="'Segoe UI, Arial, Helvetica, sans-serif'" font-size="11" lengthAdjust="spacing" textLength="91.2925" x="956.14" y="349.283">timestamp : float</text><text fill="#555555" font-family="'Segoe UI, Arial, Helvetica, sans-serif'" font-size="11" lengthAdjust="spacing" textLength="133.7241" x="956.14" y="362.2381">source : "audio" | "visual"</text><text fill="#555555" font-family="'Segoe UI, Arial, Helvetica, sans-serif'" font-size="11" lengthAdjust="spacing" textLength="72.2788" x="956.14" y="375.1932">quote : string</text><text fill="#555555" font-family="'Segoe UI, Arial, Helvetica, sans-serif'" font-size="11" lengthAdjust="spacing" textLength="101.3042" x="956.14" y="388.1483">description : string</text><text fill="#555555" font-family="'Segoe UI, Arial, Helvetica, sans-serif'" font-size="11" lengthAdjust="spacing" textLength="92.6943" x="956.14" y="401.1034">confidence : float</text><line style="stroke:#B0B0B0;stroke-width:0.5;" x1="951.14" x2="1094.8641" y1="407.4237" y2="407.4237"/></g><!--link Node to NodeType--><g class="link" data-entity-1="ent0003" data-entity-2="ent0004" data-link-type="dependency" data-source-line="108" id="lnk16"><path codeLine="108" d="M891,634.8883 C891,660.7283 891,684.8783 891,710.7383" fill="none" id="Node-to-NodeType" style="stroke:#999999;stroke-width:1;"/><polygon fill="#999999" points="891,716.7383,895,707.7383,891,711.7383,887,707.7383,891,716.7383" style="stroke:#999999;stroke-width:1;"/><text fill="#666666" font-family="'Segoe UI, Arial, Helvetica, sans-serif'" font-size="11" lengthAdjust="spacing" textLength="44.9023" x="892" y="684.743">has type</text></g><!--link Edge to RelationType--><g class="link" data-entity-1="ent0006" data-entity-2="ent0007" data-link-type="dependency" data-source-line="109" id="lnk17"><path codeLine="109" d="M488.89,422.1383 C480.54,448.4183 472.5296,473.6108 463.9496,500.5708" fill="none" id="Edge-to-RelationType" style="stroke:#999999;stroke-width:1;"/><polygon fill="#999999" points="462.13,506.2883,468.671,498.9252,463.6463,501.5237,461.0477,496.4991,462.13,506.2883" style="stroke:#999999;stroke-width:1;"/><text fill="#666666" font-family="'Segoe UI, Arial, Helvetica, sans-serif'" font-size="11" lengthAdjust="spacing" textLength="62.7505" x="479.51" y="463.533">has relation</text></g><!--link Edge to Evidence--><g class="link" data-entity-1="ent0006" data-entity-2="ent0008" data-link-type="dependency" data-source-line="110" id="lnk18"><path codeLine="110" d="M546.22,422.1383 C567.11,454.9883 589.3808,490.015 608.8108,520.575" fill="none" id="Edge-to-Evidence" style="stroke:#999999;stroke-width:1;"/><polygon fill="#999999" points="612.03,525.6383,610.5767,515.8972,609.3473,521.4189,603.8257,520.1895,612.03,525.6383" style="stroke:#999999;stroke-width:1;"/><text fill="#666666" font-family="'Segoe UI, Arial, Helvetica, sans-serif'" font-size="11" lengthAdjust="spacing" textLength="35.6265" x="571.98" y="463.533">carries</text></g><!--link Edge to Node--><g class="link" data-entity-1="ent0006" data-entity-2="ent0003" data-link-type="dependency" data-source-line="111" id="lnk19"><path codeLine="111" d="M587.04,387.8483 C641.89,407.4783 715.49,437.3083 775,473.8983 C793.03,484.9883 806.528,494.9365 822.878,508.6865" fill="none" id="Edge-to-Node" style="stroke:#999999;stroke-width:1;"/><polygon fill="#999999" points="827.47,512.5483,823.1565,503.6943,823.6433,509.3301,818.0075,509.8169,827.47,512.5483" style="stroke:#999999;stroke-width:1;"/><text fill="#666666" font-family="'Segoe UI, Arial, Helvetica, sans-serif'" font-size="11" lengthAdjust="spacing" textLength="47.5288" x="755.8" y="463.533">connects</text><text fill="#666666" font-family="'Segoe UI, Arial, Helvetica, sans-serif'" font-size="11" lengthAdjust="spacing" textLength="6.9556" x="594.6475" y="388.4459">2</text></g><!--reverse link TemporalKnowledgeGraph to Node--><g class="link" data-entity-1="ent0010" data-entity-2="ent0003" data-link-type="composition" data-source-line="112" id="lnk20"><path codeLine="112" d="M348.9211,153.6562 C479.8011,169.6762 710.44,204.7183 775,261.1683 C848.76,325.6683 875.71,441.6283 885.49,512.4483" fill="none" id="TemporalKnowledgeGraph-backto-Node" style="stroke:#999999;stroke-width:1;"/><polygon fill="#999999" points="337.01,152.1983,342.4796,156.8976,348.9211,153.6562,343.4515,148.9569,337.01,152.1983" style="stroke:#999999;stroke-width:1;"/><text fill="#666666" font-family="'Segoe UI, Arial, Helvetica, sans-serif'" font-size="11" lengthAdjust="spacing" textLength="45.0205" x="871.35" y="365.673">contains</text></g><!--reverse link TemporalKnowledgeGraph to Edge--><g class="link" data-entity-1="ent0010" data-entity-2="ent0006" data-link-type="composition" data-source-line="113" id="lnk21"><path codeLine="113" d="M317.0111,197.9908 C354.9711,230.1908 396.34,265.2983 437.13,299.8983" fill="none" id="TemporalKnowledgeGraph-backto-Edge" style="stroke:#999999;stroke-width:1;"/><polygon fill="#999999" points="307.86,190.2283,309.848,197.1599,317.0111,197.9908,315.0231,191.0592,307.86,190.2283" style="stroke:#999999;stroke-width:1;"/><text fill="#666666" font-family="'Segoe UI, Arial, Helvetica, sans-serif'" font-size="11" lengthAdjust="spacing" textLength="45.0205" x="381" y="250.803">contains</text></g><!--reverse link TemporalKnowledgeGraph to TimelineSnapshot--><g class="link" data-entity-1="ent0010" data-entity-2="ent0011" data-link-type="composition" data-source-line="114" id="lnk22"><path codeLine="114" d="M209.9716,199.889 C184.7716,234.089 157.84,270.6583 131.63,306.2383" fill="none" id="TemporalKnowledgeGraph-backto-TimelineSnapshot" style="stroke:#999999;stroke-width:1;"/><polygon fill="#999999" points="217.09,190.2283,210.3106,192.6858,209.9716,199.889,216.751,197.4314,217.09,190.2283" style="stroke:#999999;stroke-width:1;"/><text fill="#666666" font-family="'Segoe UI, Arial, Helvetica, sans-serif'" font-size="11" lengthAdjust="spacing" textLength="45.0205" x="177.8" y="250.803">contains</text></g><!--reverse link TemporalKnowledgeGraph to GraphMetadata--><g class="link" data-entity-1="ent0010" data-entity-2="ent0012" data-link-type="composition" data-source-line="115" id="lnk23"><path codeLine="115" d="M256.0973,202.1997 C258.6073,238.5197 261.23,276.4383 263.73,312.7383" fill="none" id="TemporalKnowledgeGraph-backto-GraphMetadata" style="stroke:#999999;stroke-width:1;"/><polygon fill="#999999" points="255.27,190.2283,251.6932,196.4898,256.0973,202.1997,259.6741,195.9382,255.27,190.2283" style="stroke:#999999;stroke-width:1;"/><text fill="#666666" font-family="'Segoe UI, Arial, Helvetica, sans-serif'" font-size="11" lengthAdjust="spacing" textLength="18.5088" x="260.5" y="250.803">has</text></g><!--reverse link InsightResult to EvidenceChain--><g class="link" data-entity-1="ent0014" data-entity-2="ent0015" data-link-type="composition" data-source-line="116" id="lnk24"><path codeLine="116" d="M1024.9139,221.4671 C1024.4839,252.5271 1024.15,276.9783 1023.74,306.2483" fill="none" id="InsightResult-backto-EvidenceChain" style="stroke:#999999;stroke-width:1;"/><polygon fill="#999999" points="1025.08,209.4683,1020.9973,215.4123,1024.9139,221.4671,1028.9966,215.5231,1025.08,209.4683" style="stroke:#999999;stroke-width:1;"/><text fill="#666666" font-family="'Segoe UI, Arial, Helvetica, sans-serif'" font-size="11" lengthAdjust="spacing" textLength="90.2612" x="1025.59" y="250.803">every insight has</text></g><?plantuml-src ZLLTRzCm57tFhx322w1Lsa0Ws0FIrWsO4EDZumcXw2w-RQqvTh2TJONjltFjEecJT6NfG-rxJk9pFsslXQh1GCKuBg2HxhrMxXmgPFa5BZMo7sTxxCW8a7li8yeRTAA4FMP1sPb58nPvPhTzuaByGNPma81s1LpV2hLa2v0M4yJeHl6vDWeDUvFOvnAiFTQ6evbhgGrxShNlVsEAFoyINePdJ3XopeYhnc72V1MU1vd7K5ulex30Nu3_ZVaV4KZTbBplVmdvo1Xz6y6tuHc3YRJNuKa8vteZVHFK_InpmababrZLse1advI-bSYNo3uOg5Tinax00VkiESeigqaT49Plm7EosfpzpHWzfNSYcAB1FuApGsOf46hPsTowHh9wvYKjExk4AvHJ-a8OwmgBg0XRI0sEFRLOQiNji-JT_tEWJOWb4XUb2yXz5lvGDLKdAN70rWZNQ7hnkXPbjxkkHS-KWlVES2o55Lfr1WgFgEA9zvD8dbB4Hv7qfbI8Rao9NNZOKqLY2y5x_noO9RfT38CI78aYplUu76J0YGgjWwhU4KNQBiXH5RH4qlxie2VWJGUVnkKaqEdfYOyLAcz5tdiDWXTNwtw_qhUguCsWGaYIC-0pQWVnvyc7IbrLmZdaXTF3UFIcg326ltLZd88YrcyE3HSwPtSiln6s0HcM5L8IUDwzyxkXXkjpSiTK8sMYqfP6r34dspaBQbiiQd2hhPHjrJIdW82W6JYigBR9knxVi7i7VS7Os9e_V_KPzSNfqqd_YTbNYwHJ2BcComi5DQN89QmA7N0_GWut4-Lpt4yZFlv88cnIc7rJbqxSOD4gtyGdEJxYhGiJl6oCeQehGbzFXqyBnp4m90pK3vnBf5EjXb8lOYTDF73QWUmS46gCjD9J97IshyFHA4jBuKnPiLmvzgLnTUE6bH2nxsZfZaqhlAagCEijCzk7nnzswHVnzL6OoKVXiFAiex0zert2QKUY9vp4TPg9heiZPvuQ4Y8DNGz_-dgM6d5TX5xpq3U_YE3Mffwlg3qULL_Ts9ss-mCzlhEvTupHFeNX3ftDtlNtqI5RWGqNPnQk1GyEPkY6qCxtddJQ3-CIZ15eDrZ-8kzEy9XM2ltuV614F9_D4ggVBJkfuOZ7KITD_xZNXjqMlC-6HHrq3D9zI5SJKd6Bs1Z-dNy0?></g></svg>