<?plantuml 1.2026.1?><svg xmlns="http://www.w3.org/2000/svg" xmlns:xlink="http://www.w3.org/1999/xlink" contentStyleType="text/css" data-diagram-type="ACTIVITY" height="930px" preserveAspectRatio="none" style="width:1501px;height:930px;background:#FFFFFF;" version="1.1" viewBox="0 0 1501 930" width="1501px" zoomAndPan="magnify"><title>Data Pipeline - VISTRAL Processing Flow</title><defs/><g><g class="title" data-source-line="13"><text fill="#000000" font-family="'Segoe UI, Arial, Helvetica, sans-serif'" font-size="14" font-weight="bold" lengthAdjust="spacing" textLength="294.5332" x="602.0303" y="33.5352">Data Pipeline - VISTRAL Processing Flow</text></g><rect fill="none" height="14.1328" style="stroke:none;stroke-width:1;" width="1468.5938" x="15" y="48.5195"/><rect fill="#F0F8FF" height="870.4531" style="stroke:#F0F8FF;stroke-width:1;" width="497.1582" x="15" y="48.5195"/><rect fill="#FFFFFF" height="34.1328" rx="2" ry="2" style="stroke:#B0B0B0;stroke-width:0.5;" width="174.8984" x="172.2715" y="107.6523"/><text fill="#333333" font-family="'Segoe UI, Arial, Helvetica, sans-serif'" font-size="12" lengthAdjust="spacing" textLength="154.8984" x="182.2715" y="129.2539">Video Upload (MP4/WebM)</text><rect fill="#555555" height="6" rx="2.5" ry="2.5" style="stroke:#555555;stroke-width:1;" width="443.0313" x="39.2051" y="161.7852"/><rect fill="#FFFFFF" height="48.2656" rx="2" ry="2" style="stroke:#B0B0B0;stroke-width:0.5;" width="166.3145" x="51.2051" y="194.8516"/><text fill="#333333" font-family="'Segoe UI, Arial, Helvetica, sans-serif'" font-size="12" lengthAdjust="spacing" textLength="146.3145" x="61.2051" y="216.4531">FFmpeg Audio Extraction</text><text fill="#333333" font-family="'Segoe UI, Arial, Helvetica, sans-serif'" font-size="12" lengthAdjust="spacing" textLength="138.1582" x="61.2051" y="230.5859">16kHz mono WAV (~3s)</text><rect fill="#FFFFFF" height="62.3984" rx="2" ry="2" style="stroke:#B0B0B0;stroke-width:0.5;" width="222.7168" x="245.5195" y="187.7852"/><text fill="#333333" font-family="'Segoe UI, Arial, Helvetica, sans-serif'" font-size="12" lengthAdjust="spacing" textLength="202.7168" x="255.5195" y="209.3867">FFmpeg Adaptive Frame Extraction</text><text fill="#333333" font-family="'Segoe UI, Arial, Helvetica, sans-serif'" font-size="12" lengthAdjust="spacing" textLength="179.0098" x="255.5195" y="223.5195">scene detection threshold=0.3</text><text fill="#333333" font-family="'Segoe UI, Arial, Helvetica, sans-serif'" font-size="12" lengthAdjust="spacing" textLength="163.7402" x="255.5195" y="237.6523">+ 30s interval fallback (~5s)</text><rect fill="#555555" height="6" rx="2.5" ry="2.5" style="stroke:#555555;stroke-width:1;" width="443.0313" x="39.2051" y="270.1836"/><rect fill="#555555" height="6" rx="2.5" ry="2.5" style="stroke:#555555;stroke-width:1;" width="487.1582" x="21" y="296.1836"/><rect fill="#FFFFFF" height="62.3984" rx="2" ry="2" style="stroke:#B0B0B0;stroke-width:0.5;" width="210.6465" x="283.5117" y="322.1836"/><text fill="#333333" font-family="'Segoe UI, Arial, Helvetica, sans-serif'" font-size="12" lengthAdjust="spacing" textLength="135.4746" x="293.5117" y="343.7852">Perceptual Hash Dedup</text><text fill="#333333" font-family="'Segoe UI, Arial, Helvetica, sans-serif'" font-size="12" lengthAdjust="spacing" textLength="182.3027" x="293.5117" y="357.918">imagehash phash, threshold=8</text><text fill="#333333" font-family="'Segoe UI, Arial, Helvetica, sans-serif'" font-size="12" lengthAdjust="spacing" textLength="190.6465" x="293.5117" y="372.0508">skip near-duplicate frames (~1s)</text><rect fill="#555555" height="6" rx="2.5" ry="2.5" style="stroke:#555555;stroke-width:1;" width="487.1582" x="21" y="404.582"/><rect fill="#555555" height="6" rx="2.5" ry="2.5" style="stroke:#555555;stroke-width:1;" width="474.748" x="27.2051" y="430.582"/><rect fill="#FFFFFF" height="62.3984" rx="2" ry="2" style="stroke:#B0B0B0;stroke-width:0.5;" width="257.2285" x="131.1064" y="814.5742"/><text fill="#333333" font-family="'Segoe UI, Arial, Helvetica, sans-serif'" font-size="12" lengthAdjust="spacing" textLength="111.6797" x="141.1064" y="836.1758">Save Results (JSON)</text><text fill="#333333" font-family="'Segoe UI, Arial, Helvetica, sans-serif'" font-size="12" lengthAdjust="spacing" textLength="237.2285" x="141.1064" y="850.3086">transcript + knowledge graph + insights</text><text fill="#333333" font-family="'Segoe UI, Arial, Helvetica, sans-serif'" font-size="12" lengthAdjust="spacing" textLength="105.2695" x="141.1064" y="864.4414">+ evidence chains</text><ellipse cx="259.7207" cy="907.9727" fill="none" rx="11" ry="11" style="stroke:#222222;stroke-width:1;"/><ellipse cx="259.7207" cy="907.9727" fill="#222222" rx="6" ry="6" style="stroke:#222222;stroke-width:1;"/><line style="stroke:#000000;stroke-width:1.5;" x1="15" x2="15" y1="48.5195" y2="918.9727"/><rect fill="#FFF8F0" height="870.4531" style="stroke:#FFF8F0;stroke-width:1;" width="492.4648" x="512.1582" y="48.5195"/><rect fill="#FFFFFF" height="62.3984" rx="2" ry="2" style="stroke:#B0B0B0;stroke-width:0.5;" width="230.2285" x="525.9531" y="322.1836"/><text fill="#333333" font-family="'Segoe UI, Arial, Helvetica, sans-serif'" font-size="12" lengthAdjust="spacing" textLength="118.7051" x="535.9531" y="343.7852">Voxtral Transcribe 2</text><text fill="#333333" font-family="'Segoe UI, Arial, Helvetica, sans-serif'" font-size="12" lengthAdjust="spacing" textLength="151.1602" x="535.9531" y="357.918">ASR + speaker diarization</text><text fill="#333333" font-family="'Segoe UI, Arial, Helvetica, sans-serif'" font-size="12" lengthAdjust="spacing" textLength="210.2285" x="535.9531" y="372.0508">+ word-level timestamps (~15-30s)</text><rect fill="#FFFFFF" height="76.5313" rx="2" ry="2" style="stroke:#B0B0B0;stroke-width:0.5;" width="210.8984" x="532.1582" y="456.582"/><text fill="#333333" font-family="'Segoe UI, Arial, Helvetica, sans-serif'" font-size="12" lengthAdjust="spacing" textLength="126.5508" x="542.1582" y="478.1836">Mistral Small - Pass A</text><text fill="#333333" font-family="'Segoe UI, Arial, Helvetica, sans-serif'" font-size="12" lengthAdjust="spacing" textLength="190.8984" x="542.1582" y="492.3164">Entity extraction from transcript:</text><text fill="#333333" font-family="'Segoe UI, Arial, Helvetica, sans-serif'" font-size="12" lengthAdjust="spacing" textLength="170.707" x="542.1582" y="506.4492">speakers, topics, claims, KPIs</text><text fill="#333333" font-family="'Segoe UI, Arial, Helvetica, sans-serif'" font-size="12" lengthAdjust="spacing" textLength="188.2734" x="542.1582" y="520.582">+ topic segmentation (~10-15s)</text><rect fill="#FFFFFF" height="76.5313" rx="2" ry="2" style="stroke:#B0B0B0;stroke-width:0.5;" width="217.5664" x="771.0566" y="456.582"/><text fill="#333333" font-family="'Segoe UI, Arial, Helvetica, sans-serif'" font-size="12" lengthAdjust="spacing" textLength="174.7031" x="781.0566" y="478.1836">Pixtral Large - Vision Analysis</text><text fill="#333333" font-family="'Segoe UI, Arial, Helvetica, sans-serif'" font-size="12" lengthAdjust="spacing" textLength="162.3984" x="781.0566" y="492.3164">Batch frames (groups of 15)</text><text fill="#333333" font-family="'Segoe UI, Arial, Helvetica, sans-serif'" font-size="12" lengthAdjust="spacing" textLength="144.4336" x="781.0566" y="506.4492">OCR + scene description</text><text fill="#333333" font-family="'Segoe UI, Arial, Helvetica, sans-serif'" font-size="12" lengthAdjust="spacing" textLength="197.5664" x="781.0566" y="520.582">JSON structured output (~15-30s)</text><rect fill="#555555" height="6" rx="2.5" ry="2.5" style="stroke:#555555;stroke-width:1;" width="482.4648" x="518.1582" y="553.1133"/><rect fill="#FFFFFF" height="76.5313" rx="2" ry="2" style="stroke:#B0B0B0;stroke-width:0.5;" width="275.5566" x="622.6123" y="718.043"/><text fill="#333333" font-family="'Segoe UI, Arial, Helvetica, sans-serif'" font-size="12" lengthAdjust="spacing" textLength="125.1738" x="632.6123" y="739.6445">Mistral Small - Pass B</text><text fill="#333333" font-family="'Segoe UI, Arial, Helvetica, sans-serif'" font-size="12" lengthAdjust="spacing" textLength="180.123" x="632.6123" y="753.7773">Reasoning on serialized graph:</text><text fill="#333333" font-family="'Segoe UI, Arial, Helvetica, sans-serif'" font-size="12" lengthAdjust="spacing" textLength="255.5566" x="632.6123" y="767.9102">action items, decisions, contradictions, KPIs</text><text fill="#333333" font-family="'Segoe UI, Arial, Helvetica, sans-serif'" font-size="12" lengthAdjust="spacing" textLength="251.1035" x="632.6123" y="782.043">Each insight with evidence chain (~10-15s)</text><line style="stroke:#000000;stroke-width:1.5;" x1="512.1582" x2="512.1582" y1="48.5195" y2="918.9727"/><rect fill="#F0FFF0" height="870.4531" style="stroke:#F0FFF0;stroke-width:1;" width="478.0723" x="1004.623" y="48.5195"/><ellipse cx="1244.6592" cy="77.6523" fill="#222222" rx="10" ry="10" style="stroke:#222222;stroke-width:1;"/><rect fill="#FFFFFF" height="118.9297" rx="2" ry="2" style="stroke:#B0B0B0;stroke-width:0.5;" width="468.0723" x="1010.623" y="579.1133"/><text fill="#333333" font-family="'Segoe UI, Arial, Helvetica, sans-serif'" font-size="12" lengthAdjust="spacing" textLength="179.9063" x="1020.623" y="600.7148">Knowledge Graph Builder (~2s)</text><text fill="#333333" font-family="'Segoe UI, Arial, Helvetica, sans-serif'" font-size="12" lengthAdjust="spacing" textLength="224.9355" x="1020.623" y="614.8477">-- Merge transcript + vision + entities</text><text fill="#333333" font-family="'Segoe UI, Arial, Helvetica, sans-serif'" font-size="12" lengthAdjust="spacing" textLength="338.9238" x="1020.623" y="628.9805">-- Create nodes: speaker, topic, KPI, slide, decision, claim</text><text fill="#333333" font-family="'Segoe UI, Arial, Helvetica, sans-serif'" font-size="12" lengthAdjust="spacing" textLength="448.0723" x="1020.623" y="643.1133">-- Create edges: said_by, shown_during, contradicts, decided, committed_to</text><text fill="#333333" font-family="'Segoe UI, Arial, Helvetica, sans-serif'" font-size="12" lengthAdjust="spacing" textLength="233.0859" x="1020.623" y="657.2461">-- Cross-reference audio-visual signals</text><text fill="#333333" font-family="'Segoe UI, Arial, Helvetica, sans-serif'" font-size="12" lengthAdjust="spacing" textLength="208.7695" x="1020.623" y="671.3789">-- Generate 60s timeline snapshots</text><text fill="#333333" font-family="'Segoe UI, Arial, Helvetica, sans-serif'" font-size="12" lengthAdjust="spacing" textLength="288.9199" x="1020.623" y="685.5117">-- Serialize graph (~3.5k tokens for 10min video)</text><line style="stroke:#000000;stroke-width:1.5;" x1="1004.623" x2="1004.623" y1="48.5195" y2="918.9727"/><line style="stroke:#000000;stroke-width:1.5;" x1="1482.6953" x2="1482.6953" y1="48.5195" y2="918.9727"/><line style="stroke:#999999;stroke-width:1;" x1="134.3623" x2="134.3623" y1="167.7852" y2="194.8516"/><polygon fill="#999999" points="130.3623,184.8516,134.3623,194.8516,138.3623,184.8516,134.3623,188.8516" style="stroke:#999999;stroke-width:1;"/><line style="stroke:#999999;stroke-width:1;" x1="356.8779" x2="356.8779" y1="167.7852" y2="187.7852"/><polygon fill="#999999" points="352.8779,177.7852,356.8779,187.7852,360.8779,177.7852,356.8779,181.7852" style="stroke:#999999;stroke-width:1;"/><line style="stroke:#999999;stroke-width:1;" x1="134.3623" x2="134.3623" y1="243.1172" y2="270.1836"/><polygon fill="#999999" points="130.3623,260.1836,134.3623,270.1836,138.3623,260.1836,134.3623,264.1836" style="stroke:#999999;stroke-width:1;"/><line style="stroke:#999999;stroke-width:1;" x1="356.8779" x2="356.8779" y1="250.1836" y2="270.1836"/><polygon fill="#999999" points="352.8779,260.1836,356.8779,270.1836,360.8779,260.1836,356.8779,264.1836" style="stroke:#999999;stroke-width:1;"/><line style="stroke:#999999;stroke-width:1;" x1="259.7207" x2="259.7207" y1="141.7852" y2="161.7852"/><polygon fill="#999999" points="255.7207,151.7852,259.7207,161.7852,263.7207,151.7852,259.7207,155.7852" style="stroke:#999999;stroke-width:1;"/><line style="stroke:#999999;stroke-width:1;" x1="388.835" x2="388.835" y1="302.1836" y2="322.1836"/><polygon fill="#999999" points="384.835,312.1836,388.835,322.1836,392.835,312.1836,388.835,316.1836" style="stroke:#999999;stroke-width:1;"/><line style="stroke:#999999;stroke-width:1;" x1="388.835" x2="388.835" y1="384.582" y2="404.582"/><polygon fill="#999999" points="384.835,394.582,388.835,404.582,392.835,394.582,388.835,398.582" style="stroke:#999999;stroke-width:1;"/><line style="stroke:#999999;stroke-width:1;" x1="259.7207" x2="259.7207" y1="276.1836" y2="296.1836"/><polygon fill="#999999" points="255.7207,286.1836,259.7207,296.1836,263.7207,286.1836,259.7207,290.1836" style="stroke:#999999;stroke-width:1;"/><line style="stroke:#999999;stroke-width:1;" x1="259.7207" x2="259.7207" y1="410.582" y2="430.582"/><polygon fill="#999999" points="255.7207,420.582,259.7207,430.582,263.7207,420.582,259.7207,424.582" style="stroke:#999999;stroke-width:1;"/><line style="stroke:#999999;stroke-width:1;" x1="259.7207" x2="259.7207" y1="876.9727" y2="896.9727"/><polygon fill="#999999" points="255.7207,886.9727,259.7207,896.9727,263.7207,886.9727,259.7207,890.9727" style="stroke:#999999;stroke-width:1;"/><line style="stroke:#999999;stroke-width:1;" x1="637.6074" x2="637.6074" y1="533.1133" y2="553.1133"/><polygon fill="#999999" points="633.6074,543.1133,637.6074,553.1133,641.6074,543.1133,637.6074,547.1133" style="stroke:#999999;stroke-width:1;"/><line style="stroke:#999999;stroke-width:1;" x1="879.8398" x2="879.8398" y1="533.1133" y2="553.1133"/><polygon fill="#999999" points="875.8398,543.1133,879.8398,553.1133,883.8398,543.1133,879.8398,547.1133" style="stroke:#999999;stroke-width:1;"/><line style="stroke:#999999;stroke-width:1;" x1="1244.6592" x2="1244.6592" y1="87.6523" y2="92.6523"/><line style="stroke:#999999;stroke-width:1;" x1="1244.6592" x2="259.7207" y1="92.6523" y2="92.6523"/><line style="stroke:#999999;stroke-width:1;" x1="259.7207" x2="259.7207" y1="92.6523" y2="107.6523"/><polygon fill="#999999" points="255.7207,97.6523,259.7207,107.6523,263.7207,97.6523,259.7207,101.6523" style="stroke:#999999;stroke-width:1;"/><line style="stroke:#999999;stroke-width:1;" x1="140.3975" x2="140.3975" y1="302.1836" y2="306.1836"/><line style="stroke:#999999;stroke-width:1;" x1="140.3975" x2="641.0674" y1="306.1836" y2="306.1836"/><line style="stroke:#999999;stroke-width:1;" x1="641.0674" x2="641.0674" y1="306.1836" y2="322.1836"/><polygon fill="#999999" points="637.0674,312.1836,641.0674,322.1836,645.0674,312.1836,641.0674,316.1836" style="stroke:#999999;stroke-width:1;"/><line style="stroke:#999999;stroke-width:1;" x1="641.0674" x2="641.0674" y1="384.582" y2="390.582"/><line style="stroke:#999999;stroke-width:1;" x1="641.0674" x2="140.3975" y1="390.582" y2="390.582"/><line style="stroke:#999999;stroke-width:1;" x1="140.3975" x2="140.3975" y1="390.582" y2="404.582"/><polygon fill="#999999" points="136.3975,394.582,140.3975,404.582,144.3975,394.582,140.3975,398.582" style="stroke:#999999;stroke-width:1;"/><line style="stroke:#999999;stroke-width:1;" x1="136.9375" x2="136.9375" y1="436.582" y2="440.582"/><line style="stroke:#999999;stroke-width:1;" x1="136.9375" x2="637.6074" y1="440.582" y2="440.582"/><line style="stroke:#999999;stroke-width:1;" x1="637.6074" x2="637.6074" y1="440.582" y2="456.582"/><polygon fill="#999999" points="633.6074,446.582,637.6074,456.582,641.6074,446.582,637.6074,450.582" style="stroke:#999999;stroke-width:1;"/><line style="stroke:#999999;stroke-width:1;" x1="379.1699" x2="379.1699" y1="436.582" y2="440.582"/><line style="stroke:#999999;stroke-width:1;" x1="379.1699" x2="879.8398" y1="440.582" y2="440.582"/><line style="stroke:#999999;stroke-width:1;" x1="879.8398" x2="879.8398" y1="440.582" y2="456.582"/><polygon fill="#999999" points="875.8398,446.582,879.8398,456.582,883.8398,446.582,879.8398,450.582" style="stroke:#999999;stroke-width:1;"/><line style="stroke:#999999;stroke-width:1;" x1="760.3906" x2="760.3906" y1="559.1133" y2="564.1133"/><line style="stroke:#999999;stroke-width:1;" x1="760.3906" x2="1244.6592" y1="564.1133" y2="564.1133"/><line style="stroke:#999999;stroke-width:1;" x1="1244.6592" x2="1244.6592" y1="564.1133" y2="579.1133"/><polygon fill="#999999" points="1240.6592,569.1133,1244.6592,579.1133,1248.6592,569.1133,1244.6592,573.1133" style="stroke:#999999;stroke-width:1;"/><line style="stroke:#999999;stroke-width:1;" x1="1244.6592" x2="1244.6592" y1="698.043" y2="703.043"/><line style="stroke:#999999;stroke-width:1;" x1="1244.6592" x2="760.3906" y1="703.043" y2="703.043"/><line style="stroke:#999999;stroke-width:1;" x1="760.3906" x2="760.3906" y1="703.043" y2="718.043"/><polygon fill="#999999" points="756.3906,708.043,760.3906,718.043,764.3906,708.043,760.3906,712.043" style="stroke:#999999;stroke-width:1;"/><line style="stroke:#999999;stroke-width:1;" x1="760.3906" x2="760.3906" y1="794.5742" y2="799.5742"/><line style="stroke:#999999;stroke-width:1;" x1="760.3906" x2="259.7207" y1="799.5742" y2="799.5742"/><line style="stroke:#999999;stroke-width:1;" x1="259.7207" x2="259.7207" y1="799.5742" y2="814.5742"/><polygon fill="#999999" points="255.7207,804.5742,259.7207,814.5742,263.7207,804.5742,259.7207,808.5742" style="stroke:#999999;stroke-width:1;"/><text fill="#000000" font-family="'Segoe UI, Arial, Helvetica, sans-serif'" font-size="12" lengthAdjust="spacing" textLength="96.1875" x="215.4854" y="60.1211">Local Processing</text><text fill="#000000" font-family="'Segoe UI, Arial, Helvetica, sans-serif'" font-size="12" lengthAdjust="spacing" textLength="61.582" x="727.5996" y="60.1211">Mistral API</text><text fill="#000000" font-family="'Segoe UI, Arial, Helvetica, sans-serif'" font-size="12" lengthAdjust="spacing" textLength="78.041" x="1204.6387" y="60.1211">Graph Engine</text><?plantuml-src ZLLDRziu4BthLmpQIuDONJkfWwwBFJXftAHDMYDkqsD0YoE9C4KA7Cfk0cD_-mufEL4I7rO6R9ZpzVZcpOXMojJ2YGeavgBHVcQD_ougX3SBB2p2hyi1J9qIUW0NgDVeLIO6GC9GIkXK_YQXVIaMwW5XTDGpKYcatIXJG2uqOS_YR6FacNK67NpedKyphzRAtv-AR5LqJjewU9l7Pv-dTH9TvxKSXiyUhu2lypcEJz_7ERlfZ7_7vwMn5tqIdvx3N3YllBBcDUIJ_6CkzhhsCSkH74kH96pI29-55p1NDMfb45AulLpyl9bUmTpP38a2bpDjDqcoVPiFEN--lRAPq3txDfXoDWstrugyO-DqVhbj0t8-_U94NSAvARZ2Dad8CopEzphFv5P9jF2hrbP8U7Sz__3NRrnU7tnAajowLGByJ6QpgiO2ferK5ix_SBqiN34QHoUhYmUehB7mUteBx_uz9WuEiI0AeSpp35BKt2o4cGjQV96ACcG-97gCP-1BXrHQBVyPlZ-E7eTmF2HGngDRyqLOSNh9BU6gur0LZOI8-WdxStuYbblx9vxyTApspAabmb6qJ1StN85g52kMh5J2gGVnYEuGDjpILECQDNXL8PDQrSIrH-EKORs-zHww8u0vkWnhtx3jGb09dr4sTJIfIXHOXhCwV0zw57niALgf6WmAbtA8vfdr27dWCkBu_npiJXOLKyWId0iYc4RRkM6LtWC-zeOBs0fynrRj9osIbYPYZBPM6VzcMgYAVx_DBwbZB9g0iAZG-4XbW3bCH-DzTBs6ELTjgww4A-AaA0evfaReUr9jbLFXi_AHX32Tt1IRmsXy4Eq_pc9NEssrLzZrzElYntVWeatc6uSIREFhnlTR-aJdYvcQV3Dser4ohjPmsYZD4y_1HtIGf2bSOm3zn1kZMBVu3m43oGef-9qv36qqbj5DThnsj4OsUIzhdj81myzYWexhNd304OA5adVBUmuexSRSoSQnwjYRTviJKcMUsYGIPJYjAkKzoZjlsrIMA7MOeqEJ8OWmxYb33a8bLJ3f4UyNPjA5eYSyYs4GuXeZ8sgkwgFB0iEh9RmhYiWDRuNtunLVQOM60fym6bRAC1-yVCAkUTxx_V8yJMvGa3LXFpA9jAiXsoAJf9EhybZH4rdKlt_xFohqNB1ibE6BbHusofU00KwuULQo9ljAtRiv5u8NsGqIlnfPU45A1ycpRgyU5TAoSBWhHydXYsBqAInfMoV_0G00?></g></svg>