<?plantuml 1.2026.1?><svg xmlns="http://www.w3.org/2000/svg" xmlns:xlink="http://www.w3.org/1999/xlink" contentStyleType="text/css" data-diagram-type="TIMING" height="501px" preserveAspectRatio="none" style="width:2582px;height:501px;background:#FFFFFF;" version="1.1" viewBox="0 0 2582 501" width="2582px" zoomAndPan="magnify"><title>Parallel Pipeline Timing - 10 Minute Video</title><defs/><g><g class="title" data-source-line="6"><text fill="#000000" font-family="'Segoe UI, Arial, Helvetica, sans-serif'" font-size="14" font-weight="bold" lengthAdjust="spacing" textLength="306.5439" x="1136.228" y="33.5352">Parallel Pipeline Timing - 10 Minute Video</text></g><line style="stroke:#333333;stroke-width:0.5;" x1="10" x2="10" y1="47.4883" y2="471.1289"/><line style="stroke:#333333;stroke-width:0.5;" x1="2570" x2="2570" y1="47.4883" y2="471.1289"/><line style="stroke:#333333;stroke-width:0.5;stroke-dasharray:3,5;" x1="15" x2="15" y1="47.4883" y2="471.1289"/><line style="stroke:#333333;stroke-width:0.5;stroke-dasharray:3,5;" x1="65" x2="65" y1="47.4883" y2="471.1289"/><line style="stroke:#333333;stroke-width:0.5;stroke-dasharray:3,5;" x1="115" x2="115" y1="47.4883" y2="471.1289"/><line style="stroke:#333333;stroke-width:0.5;stroke-dasharray:3,5;" x1="165" x2="165" y1="47.4883" y2="471.1289"/><line style="stroke:#333333;stroke-width:0.5;stroke-dasharray:3,5;" x1="215" x2="215" y1="47.4883" y2="471.1289"/><line style="stroke:#333333;stroke-width:0.5;stroke-dasharray:3,5;" x1="265" x2="265" y1="47.4883" y2="471.1289"/><line style="stroke:#333333;stroke-width:0.5;stroke-dasharray:3,5;" x1="315" x2="315" y1="47.4883" y2="471.1289"/><line style="stroke:#333333;stroke-width:0.5;stroke-dasharray:3,5;" x1="365" x2="365" y1="47.4883" y2="471.1289"/><line style="stroke:#333333;stroke-width:0.5;stroke-dasharray:3,5;" x1="415" x2="415" y1="47.4883" y2="471.1289"/><line style="stroke:#333333;stroke-width:0.5;stroke-dasharray:3,5;" x1="465" x2="465" y1="47.4883" y2="471.1289"/><line style="stroke:#333333;stroke-width:0.5;stroke-dasharray:3,5;" x1="515" x2="515" y1="47.4883" y2="471.1289"/><line style="stroke:#333333;stroke-width:0.5;stroke-dasharray:3,5;" x1="565" x2="565" y1="47.4883" y2="471.1289"/><line style="stroke:#333333;stroke-width:0.5;stroke-dasharray:3,5;" x1="615" x2="615" y1="47.4883" y2="471.1289"/><line style="stroke:#333333;stroke-width:0.5;stroke-dasharray:3,5;" x1="665" x2="665" y1="47.4883" y2="471.1289"/><line style="stroke:#333333;stroke-width:0.5;stroke-dasharray:3,5;" x1="715" x2="715" y1="47.4883" y2="471.1289"/><line style="stroke:#333333;stroke-width:0.5;stroke-dasharray:3,5;" x1="765" x2="765" y1="47.4883" y2="471.1289"/><line style="stroke:#333333;stroke-width:0.5;stroke-dasharray:3,5;" x1="815" x2="815" y1="47.4883" y2="471.1289"/><line style="stroke:#333333;stroke-width:0.5;stroke-dasharray:3,5;" x1="865" x2="865" y1="47.4883" y2="471.1289"/><line style="stroke:#333333;stroke-width:0.5;stroke-dasharray:3,5;" x1="915" x2="915" y1="47.4883" y2="471.1289"/><line style="stroke:#333333;stroke-width:0.5;stroke-dasharray:3,5;" x1="965" x2="965" y1="47.4883" y2="471.1289"/><line style="stroke:#333333;stroke-width:0.5;stroke-dasharray:3,5;" x1="1015" x2="1015" y1="47.4883" y2="471.1289"/><line style="stroke:#333333;stroke-width:0.5;stroke-dasharray:3,5;" x1="1065" x2="1065" y1="47.4883" y2="471.1289"/><line style="stroke:#333333;stroke-width:0.5;stroke-dasharray:3,5;" x1="1115" x2="1115" y1="47.4883" y2="471.1289"/><line style="stroke:#333333;stroke-width:0.5;stroke-dasharray:3,5;" x1="1165" x2="1165" y1="47.4883" y2="471.1289"/><line style="stroke:#333333;stroke-width:0.5;stroke-dasharray:3,5;" x1="1215" x2="1215" y1="47.4883" y2="471.1289"/><line style="stroke:#333333;stroke-width:0.5;stroke-dasharray:3,5;" x1="1265" x2="1265" y1="47.4883" y2="471.1289"/><line style="stroke:#333333;stroke-width:0.5;stroke-dasharray:3,5;" x1="1315" x2="1315" y1="47.4883" y2="471.1289"/><line style="stroke:#333333;stroke-width:0.5;stroke-dasharray:3,5;" x1="1365" x2="1365" y1="47.4883" y2="471.1289"/><line style="stroke:#333333;stroke-width:0.5;stroke-dasharray:3,5;" x1="1415" x2="1415" y1="47.4883" y2="471.1289"/><line style="stroke:#333333;stroke-width:0.5;stroke-dasharray:3,5;" x1="1465" x2="1465" y1="47.4883" y2="471.1289"/><line style="stroke:#333333;stroke-width:0.5;stroke-dasharray:3,5;" x1="1515" x2="1515" y1="47.4883" y2="471.1289"/><line style="stroke:#333333;stroke-width:0.5;stroke-dasharray:3,5;" x1="1565" x2="1565" y1="47.4883" y2="471.1289"/><line style="stroke:#333333;stroke-width:0.5;stroke-dasharray:3,5;" x1="1615" x2="1615" y1="47.4883" y2="471.1289"/><line style="stroke:#333333;stroke-width:0.5;stroke-dasharray:3,5;" x1="1665" x2="1665" y1="47.4883" y2="471.1289"/><line style="stroke:#333333;stroke-width:0.5;stroke-dasharray:3,5;" x1="1715" x2="1715" y1="47.4883" y2="471.1289"/><line style="stroke:#333333;stroke-width:0.5;stroke-dasharray:3,5;" x1="1765" x2="1765" y1="47.4883" y2="471.1289"/><line style="stroke:#333333;stroke-width:0.5;stroke-dasharray:3,5;" x1="1815" x2="1815" y1="47.4883" y2="471.1289"/><line style="stroke:#333333;stroke-width:0.5;stroke-dasharray:3,5;" x1="1865" x2="1865" y1="47.4883" y2="471.1289"/><line style="stroke:#333333;stroke-width:0.5;stroke-dasharray:3,5;" x1="1915" x2="1915" y1="47.4883" y2="471.1289"/><line style="stroke:#333333;stroke-width:0.5;stroke-dasharray:3,5;" x1="1965" x2="1965" y1="47.4883" y2="471.1289"/><line style="stroke:#333333;stroke-width:0.5;stroke-dasharray:3,5;" x1="2015" x2="2015" y1="47.4883" y2="471.1289"/><line style="stroke:#333333;stroke-width:0.5;stroke-dasharray:3,5;" x1="2065" x2="2065" y1="47.4883" y2="471.1289"/><line style="stroke:#333333;stroke-width:0.5;stroke-dasharray:3,5;" x1="2115" x2="2115" y1="47.4883" y2="471.1289"/><line style="stroke:#333333;stroke-width:0.5;stroke-dasharray:3,5;" x1="2165" x2="2165" y1="47.4883" y2="471.1289"/><line style="stroke:#333333;stroke-width:0.5;stroke-dasharray:3,5;" x1="2215" x2="2215" y1="47.4883" y2="471.1289"/><line style="stroke:#333333;stroke-width:0.5;stroke-dasharray:3,5;" x1="2265" x2="2265" y1="47.4883" y2="471.1289"/><line style="stroke:#333333;stroke-width:0.5;stroke-dasharray:3,5;" x1="2315" x2="2315" y1="47.4883" y2="471.1289"/><line style="stroke:#333333;stroke-width:0.5;stroke-dasharray:3,5;" x1="2365" x2="2365" y1="47.4883" y2="471.1289"/><line style="stroke:#333333;stroke-width:0.5;stroke-dasharray:3,5;" x1="2415" x2="2415" y1="47.4883" y2="471.1289"/><line style="stroke:#333333;stroke-width:0.5;stroke-dasharray:3,5;" x1="2465" x2="2465" y1="47.4883" y2="471.1289"/><line style="stroke:#333333;stroke-width:0.5;stroke-dasharray:3,5;" x1="2515" x2="2515" y1="47.4883" y2="471.1289"/><line style="stroke:#333333;stroke-width:0.5;stroke-dasharray:3,5;" x1="2565" x2="2565" y1="47.4883" y2="471.1289"/><line style="stroke:#333333;stroke-width:0.5;" x1="10" x2="2570" y1="47.4883" y2="47.4883"/><text fill="#333333" font-family="'Segoe UI, Arial, Helvetica, sans-serif'" font-size="11" font-weight="bold" lengthAdjust="spacing" textLength="81.1304" x="15" y="58.123">FFmpeg Audio</text><line style="stroke:#333333;stroke-width:0.5;" x1="10" x2="97.1304" y1="61.4434" y2="61.4434"/><line style="stroke:#333333;stroke-width:0.5;" x1="97.1304" x2="107.1304" y1="61.4434" y2="47.4883"/><polygon fill="#ADD8E6" points="27,66.4434,153,66.4434,165,78.4434,153,90.4434,27,90.4434,15,78.4434" style="stroke:#006400;stroke-width:1.5;"/><line style="stroke:#006400;stroke-width:1.5;" x1="165" x2="2565" y1="78.4434" y2="78.4434"/><text fill="#333333" font-family="'Segoe UI, Arial, Helvetica, sans-serif'" font-size="11" font-weight="bold" lengthAdjust="spacing" textLength="39.3433" x="70.3284" y="82.6006">Extract</text><line style="stroke:#333333;stroke-width:0.5;" x1="10" x2="2570" y1="100.4434" y2="100.4434"/><text fill="#333333" font-family="'Segoe UI, Arial, Helvetica, sans-serif'" font-size="11" font-weight="bold" lengthAdjust="spacing" textLength="66.3115" x="15" y="111.0781">Voxtral ASR</text><line style="stroke:#333333;stroke-width:0.5;" x1="10" x2="82.3115" y1="114.3984" y2="114.3984"/><line style="stroke:#333333;stroke-width:0.5;" x1="82.3115" x2="92.3115" y1="114.3984" y2="100.4434"/><polygon fill="#90EE90" points="177,119.3984,1003,119.3984,1015,131.3984,1003,143.3984,177,143.3984,165,131.3984" style="stroke:#006400;stroke-width:1.5;"/><line style="stroke:#006400;stroke-width:1.5;" x1="1015" x2="2565" y1="131.3984" y2="131.3984"/><text fill="#333333" font-family="'Segoe UI, Arial, Helvetica, sans-serif'" font-size="11" font-weight="bold" lengthAdjust="spacing" textLength="60.6665" x="559.6667" y="135.5557">Transcribe</text><line style="stroke:#333333;stroke-width:0.5;" x1="10" x2="2570" y1="153.3984" y2="153.3984"/><text fill="#333333" font-family="'Segoe UI, Arial, Helvetica, sans-serif'" font-size="11" font-weight="bold" lengthAdjust="spacing" textLength="89.0313" x="15" y="164.0332">FFmpeg Frames</text><line style="stroke:#333333;stroke-width:0.5;" x1="10" x2="105.0313" y1="167.3535" y2="167.3535"/><line style="stroke:#333333;stroke-width:0.5;" x1="105.0313" x2="115.0313" y1="167.3535" y2="153.3984"/><polygon fill="#ADD8E6" points="27,172.3535,253,172.3535,265,184.3535,253,196.3535,27,196.3535,15,184.3535" style="stroke:#006400;stroke-width:1.5;"/><line style="stroke:#006400;stroke-width:1.5;" x1="265" x2="2565" y1="184.3535" y2="184.3535"/><text fill="#333333" font-family="'Segoe UI, Arial, Helvetica, sans-serif'" font-size="11" font-weight="bold" lengthAdjust="spacing" textLength="39.3433" x="120.3284" y="188.5107">Extract</text><line style="stroke:#333333;stroke-width:0.5;" x1="10" x2="2570" y1="206.3535" y2="206.3535"/><text fill="#333333" font-family="'Segoe UI, Arial, Helvetica, sans-serif'" font-size="11" font-weight="bold" lengthAdjust="spacing" textLength="75.4907" x="15" y="216.9883">Frame Dedup</text><line style="stroke:#333333;stroke-width:0.5;" x1="10" x2="91.4907" y1="220.3086" y2="220.3086"/><line style="stroke:#333333;stroke-width:0.5;" x1="91.4907" x2="101.4907" y1="220.3086" y2="206.3535"/><polygon fill="#FFFFE0" points="277,225.3086,303,225.3086,315,237.3086,303,249.3086,277,249.3086,265,237.3086" style="stroke:#006400;stroke-width:1.5;"/><line style="stroke:#006400;stroke-width:1.5;" x1="315" x2="2565" y1="237.3086" y2="237.3086"/><text fill="#333333" font-family="'Segoe UI, Arial, Helvetica, sans-serif'" font-size="11" font-weight="bold" lengthAdjust="spacing" textLength="36.9692" x="271.5154" y="241.4658">Dedup</text><line style="stroke:#333333;stroke-width:0.5;" x1="10" x2="2570" y1="259.3086" y2="259.3086"/><text fill="#333333" font-family="'Segoe UI, Arial, Helvetica, sans-serif'" font-size="11" font-weight="bold" lengthAdjust="spacing" textLength="75.2598" x="15" y="269.9434">Pixtral Vision</text><line style="stroke:#333333;stroke-width:0.5;" x1="10" x2="91.2598" y1="273.2637" y2="273.2637"/><line style="stroke:#333333;stroke-width:0.5;" x1="91.2598" x2="101.2598" y1="273.2637" y2="259.3086"/><polygon fill="#FFC0CB" points="1027,278.2637,1753,278.2637,1765,290.2637,1753,302.2637,1027,302.2637,1015,290.2637" style="stroke:#006400;stroke-width:1.5;"/><line style="stroke:#006400;stroke-width:1.5;" x1="1765" x2="2565" y1="290.2637" y2="290.2637"/><text fill="#333333" font-family="'Segoe UI, Arial, Helvetica, sans-serif'" font-size="11" font-weight="bold" lengthAdjust="spacing" textLength="72.7354" x="1353.6323" y="294.4209">OCR + Scene</text><line style="stroke:#333333;stroke-width:0.5;" x1="10" x2="2570" y1="312.2637" y2="312.2637"/><text fill="#333333" font-family="'Segoe UI, Arial, Helvetica, sans-serif'" font-size="11" font-weight="bold" lengthAdjust="spacing" textLength="91.7222" x="15" y="322.8984">Pass A (Entities)</text><line style="stroke:#333333;stroke-width:0.5;" x1="10" x2="107.7222" y1="326.2188" y2="326.2188"/><line style="stroke:#333333;stroke-width:0.5;" x1="107.7222" x2="117.7222" y1="326.2188" y2="312.2637"/><polygon fill="#FFA500" points="1027,331.2188,1603,331.2188,1615,343.2188,1603,355.2188,1027,355.2188,1015,343.2188" style="stroke:#006400;stroke-width:1.5;"/><line style="stroke:#006400;stroke-width:1.5;" x1="1615" x2="2565" y1="343.2188" y2="343.2188"/><text fill="#333333" font-family="'Segoe UI, Arial, Helvetica, sans-serif'" font-size="11" font-weight="bold" lengthAdjust="spacing" textLength="42.5659" x="1293.717" y="347.376">Entities</text><line style="stroke:#333333;stroke-width:0.5;" x1="10" x2="2570" y1="365.2188" y2="365.2188"/><text fill="#333333" font-family="'Segoe UI, Arial, Helvetica, sans-serif'" font-size="11" font-weight="bold" lengthAdjust="spacing" textLength="77.8486" x="15" y="375.8535">Graph Builder</text><line style="stroke:#333333;stroke-width:0.5;" x1="10" x2="93.8486" y1="379.1738" y2="379.1738"/><line style="stroke:#333333;stroke-width:0.5;" x1="93.8486" x2="103.8486" y1="379.1738" y2="365.2188"/><polygon fill="#E0FFFF" points="1877,384.1738,1953,384.1738,1965,396.1738,1953,408.1738,1877,408.1738,1865,396.1738" style="stroke:#006400;stroke-width:1.5;"/><line style="stroke:#006400;stroke-width:1.5;" x1="1965" x2="2565" y1="396.1738" y2="396.1738"/><text fill="#333333" font-family="'Segoe UI, Arial, Helvetica, sans-serif'" font-size="11" font-weight="bold" lengthAdjust="spacing" textLength="66.4028" x="1881.7986" y="400.3311">Build Graph</text><line style="stroke:#333333;stroke-width:0.5;" x1="10" x2="2570" y1="418.1738" y2="418.1738"/><text fill="#333333" font-family="'Segoe UI, Arial, Helvetica, sans-serif'" font-size="11" font-weight="bold" lengthAdjust="spacing" textLength="93.8115" x="15" y="428.8086">Pass B (Insights)</text><line style="stroke:#333333;stroke-width:0.5;" x1="10" x2="109.8115" y1="432.1289" y2="432.1289"/><line style="stroke:#333333;stroke-width:0.5;" x1="109.8115" x2="119.8115" y1="432.1289" y2="418.1738"/><polygon fill="#DA70D6" points="1977,437.1289,2503,437.1289,2515,449.1289,2503,461.1289,1977,461.1289,1965,449.1289" style="stroke:#006400;stroke-width:1.5;"/><line style="stroke:#006400;stroke-width:1.5;" x1="2515" x2="2565" y1="449.1289" y2="449.1289"/><text fill="#333333" font-family="'Segoe UI, Arial, Helvetica, sans-serif'" font-size="11" font-weight="bold" lengthAdjust="spacing" textLength="45.8262" x="2217.0869" y="453.2861">Insights</text><line style="stroke:#333333;stroke-width:2;" x1="15" x2="15" y1="471.1289" y2="476.1289"/><line style="stroke:#333333;stroke-width:2;" x1="65" x2="65" y1="471.1289" y2="476.1289"/><line style="stroke:#333333;stroke-width:2;" x1="115" x2="115" y1="471.1289" y2="476.1289"/><line style="stroke:#333333;stroke-width:2;" x1="165" x2="165" y1="471.1289" y2="476.1289"/><line style="stroke:#333333;stroke-width:2;" x1="215" x2="215" y1="471.1289" y2="476.1289"/><line style="stroke:#333333;stroke-width:2;" x1="265" x2="265" y1="471.1289" y2="476.1289"/><line style="stroke:#333333;stroke-width:2;" x1="315" x2="315" y1="471.1289" y2="476.1289"/><line style="stroke:#333333;stroke-width:2;" x1="365" x2="365" y1="471.1289" y2="476.1289"/><line style="stroke:#333333;stroke-width:2;" x1="415" x2="415" y1="471.1289" y2="476.1289"/><line style="stroke:#333333;stroke-width:2;" x1="465" x2="465" y1="471.1289" y2="476.1289"/><line style="stroke:#333333;stroke-width:2;" x1="515" x2="515" y1="471.1289" y2="476.1289"/><line style="stroke:#333333;stroke-width:2;" x1="565" x2="565" y1="471.1289" y2="476.1289"/><line style="stroke:#333333;stroke-width:2;" x1="615" x2="615" y1="471.1289" y2="476.1289"/><line style="stroke:#333333;stroke-width:2;" x1="665" x2="665" y1="471.1289" y2="476.1289"/><line style="stroke:#333333;stroke-width:2;" x1="715" x2="715" y1="471.1289" y2="476.1289"/><line style="stroke:#333333;stroke-width:2;" x1="765" x2="765" y1="471.1289" y2="476.1289"/><line style="stroke:#333333;stroke-width:2;" x1="815" x2="815" y1="471.1289" y2="476.1289"/><line style="stroke:#333333;stroke-width:2;" x1="865" x2="865" y1="471.1289" y2="476.1289"/><line style="stroke:#333333;stroke-width:2;" x1="915" x2="915" y1="471.1289" y2="476.1289"/><line style="stroke:#333333;stroke-width:2;" x1="965" x2="965" y1="471.1289" y2="476.1289"/><line style="stroke:#333333;stroke-width:2;" x1="1015" x2="1015" y1="471.1289" y2="476.1289"/><line style="stroke:#333333;stroke-width:2;" x1="1065" x2="1065" y1="471.1289" y2="476.1289"/><line style="stroke:#333333;stroke-width:2;" x1="1115" x2="1115" y1="471.1289" y2="476.1289"/><line style="stroke:#333333;stroke-width:2;" x1="1165" x2="1165" y1="471.1289" y2="476.1289"/><line style="stroke:#333333;stroke-width:2;" x1="1215" x2="1215" y1="471.1289" y2="476.1289"/><line style="stroke:#333333;stroke-width:2;" x1="1265" x2="1265" y1="471.1289" y2="476.1289"/><line style="stroke:#333333;stroke-width:2;" x1="1315" x2="1315" y1="471.1289" y2="476.1289"/><line style="stroke:#333333;stroke-width:2;" x1="1365" x2="1365" y1="471.1289" y2="476.1289"/><line style="stroke:#333333;stroke-width:2;" x1="1415" x2="1415" y1="471.1289" y2="476.1289"/><line style="stroke:#333333;stroke-width:2;" x1="1465" x2="1465" y1="471.1289" y2="476.1289"/><line style="stroke:#333333;stroke-width:2;" x1="1515" x2="1515" y1="471.1289" y2="476.1289"/><line style="stroke:#333333;stroke-width:2;" x1="1565" x2="1565" y1="471.1289" y2="476.1289"/><line style="stroke:#333333;stroke-width:2;" x1="1615" x2="1615" y1="471.1289" y2="476.1289"/><line style="stroke:#333333;stroke-width:2;" x1="1665" x2="1665" y1="471.1289" y2="476.1289"/><line style="stroke:#333333;stroke-width:2;" x1="1715" x2="1715" y1="471.1289" y2="476.1289"/><line style="stroke:#333333;stroke-width:2;" x1="1765" x2="1765" y1="471.1289" y2="476.1289"/><line style="stroke:#333333;stroke-width:2;" x1="1815" x2="1815" y1="471.1289" y2="476.1289"/><line style="stroke:#333333;stroke-width:2;" x1="1865" x2="1865" y1="471.1289" y2="476.1289"/><line style="stroke:#333333;stroke-width:2;" x1="1915" x2="1915" y1="471.1289" y2="476.1289"/><line style="stroke:#333333;stroke-width:2;" x1="1965" x2="1965" y1="471.1289" y2="476.1289"/><line style="stroke:#333333;stroke-width:2;" x1="2015" x2="2015" y1="471.1289" y2="476.1289"/><line style="stroke:#333333;stroke-width:2;" x1="2065" x2="2065" y1="471.1289" y2="476.1289"/><line style="stroke:#333333;stroke-width:2;" x1="2115" x2="2115" y1="471.1289" y2="476.1289"/><line style="stroke:#333333;stroke-width:2;" x1="2165" x2="2165" y1="471.1289" y2="476.1289"/><line style="stroke:#333333;stroke-width:2;" x1="2215" x2="2215" y1="471.1289" y2="476.1289"/><line style="stroke:#333333;stroke-width:2;" x1="2265" x2="2265" y1="471.1289" y2="476.1289"/><line style="stroke:#333333;stroke-width:2;" x1="2315" x2="2315" y1="471.1289" y2="476.1289"/><line style="stroke:#333333;stroke-width:2;" x1="2365" x2="2365" y1="471.1289" y2="476.1289"/><line style="stroke:#333333;stroke-width:2;" x1="2415" x2="2415" y1="471.1289" y2="476.1289"/><line style="stroke:#333333;stroke-width:2;" x1="2465" x2="2465" y1="471.1289" y2="476.1289"/><line style="stroke:#333333;stroke-width:2;" x1="2515" x2="2515" y1="471.1289" y2="476.1289"/><line style="stroke:#333333;stroke-width:2;" x1="2565" x2="2565" y1="471.1289" y2="476.1289"/><line style="stroke:#333333;stroke-width:2;" x1="15" x2="2565" y1="471.1289" y2="471.1289"/><text fill="#333333" font-family="'Segoe UI, Arial, Helvetica, sans-serif'" font-size="11" lengthAdjust="spacing" textLength="6.9556" x="11.5222" y="487.7637">0</text><text fill="#333333" font-family="'Segoe UI, Arial, Helvetica, sans-serif'" font-size="11" lengthAdjust="spacing" textLength="6.9556" x="161.5222" y="487.7637">3</text><text fill="#333333" font-family="'Segoe UI, Arial, Helvetica, sans-serif'" font-size="11" lengthAdjust="spacing" textLength="6.9556" x="261.5222" y="487.7637">5</text><text fill="#333333" font-family="'Segoe UI, Arial, Helvetica, sans-serif'" font-size="11" lengthAdjust="spacing" textLength="6.9556" x="311.5222" y="487.7637">6</text><text fill="#333333" font-family="'Segoe UI, Arial, Helvetica, sans-serif'" font-size="11" lengthAdjust="spacing" textLength="13.9111" x="1008.0444" y="487.7637">20</text><text fill="#333333" font-family="'Segoe UI, Arial, Helvetica, sans-serif'" font-size="11" lengthAdjust="spacing" textLength="13.9111" x="1608.0444" y="487.7637">32</text><text fill="#333333" font-family="'Segoe UI, Arial, Helvetica, sans-serif'" font-size="11" lengthAdjust="spacing" textLength="13.9111" x="1758.0444" y="487.7637">35</text><text fill="#333333" font-family="'Segoe UI, Arial, Helvetica, sans-serif'" font-size="11" lengthAdjust="spacing" textLength="13.9111" x="1858.0444" y="487.7637">37</text><text fill="#333333" font-family="'Segoe UI, Arial, Helvetica, sans-serif'" font-size="11" lengthAdjust="spacing" textLength="13.9111" x="1958.0444" y="487.7637">39</text><text fill="#333333" font-family="'Segoe UI, Arial, Helvetica, sans-serif'" font-size="11" lengthAdjust="spacing" textLength="13.9111" x="2508.0444" y="487.7637">50</text><?plantuml-src TL7RJXin47ttLuosBrHDf8GKKDzoWG1IMo928_MfSjQJpGZ7NjbUw4NyE_OuwQuQ-ZRskVZCiNyaKqidTw1m8niTvjQ4htA7K2oniWZVRdimSIHr3svGFs6WKlR0I-Fx7Xrj2k7VibZIRuJXi0FwhLJscKm56wazTX1d6wDcrXbqy568G44ZB2AaDMfOK8sQ3C83xPAw3yC1V27J18GLARH2bDQKv6Fa-NnNOmMJHf4jG7gGQMhnbVqPeYrCblSPzkv8F8-Hq3EyuR73I6UuHDNKZAiqjV22ilkAF5d3Z2SUEnJfFKpWvCh4BGdzUsRLyVQ7R5dNJjPRc3Qa5JfcLEdc7vifdDmQJzKsT6tMGem7WlS6yb1SfKnbAE3TvqITwWP5tkk_i1YFMeC__HSHQsBoWulVNZfQuu5_xH1D59nrF9E2cs7DlgrC_uvQs-V8FsyPYIx6fuF3A-cS2ya1zqr5YxluV8KYTyhWtUmUFi2oH9CIBSWyfl2d7Nrs7vrrLFkh2y6biWzN3Lpx8UhibqoBZJwrjB_9rYmwbC_9oYsfrCEWmyWFlVKPtF1ngSSzlW80?></g></svg>